<?xml version="1.0" encoding="UTF-8"?>
<svg id="Layer_1" data-name="Layer 1" xmlns="http://www.w3.org/2000/svg" viewBox="0 0 200 173.7">
  <defs>
    <style>
      .cls-1 {
        fill: #333;
      }

      .cls-2 {
        fill: none;
        stroke: #f49824;
        stroke-width: 2.4px;
      }
    </style>
  </defs>
  <g id="Design">
    <g id="Our-vision-_-culture" data-name="Our-vision-&amp;amp;-culture">
      <g id="Stroke-2">
        <polygon id="Stroke-1" class="cls-2" points="149.25 1.63 50.75 1.63 1.5 86.85 50.75 172.07 149.25 172.07 198.5 86.85 149.25 1.63"/>
      </g>
    </g>
  </g>
  <g>
    <path class="cls-1" d="m100.81,144.23c-.68,0-1.23-.55-1.23-1.22V35.59c0-.68.55-1.22,1.23-1.22s1.23.55,1.23,1.22v107.42c0,.68-.55,1.22-1.23,1.22Z"/>
    <path class="cls-1" d="m82.17,144.23c-.68,0-1.23-.55-1.23-1.22s.55-1.22,1.23-1.22h37.25c.68,0,1.23.55,1.23,1.22s-.55,1.22-1.23,1.22h-37.25Z"/>
    <path class="cls-1" d="m45.99,74.35c-.54,0-1.04-.36-1.18-.91-.18-.65.21-1.32.87-1.5l106.56-28.52c.66-.18,1.33.21,1.5.87.17.65-.21,1.32-.87,1.5l-106.56,28.52c-.11.03-.21.04-.32.04Z"/>
    <circle class="cls-1" cx="157.27" cy="43.33" r="1.22"/>
    <circle class="cls-1" cx="100.81" cy="30.69" r="1.22"/>
    <path class="cls-1" d="m44.66,107.35c-.11,0-.22-.01-.32-.04-.65-.18-1.04-.85-.86-1.5l9.67-35.34c.14-.52.61-.89,1.16-.9,0,0,.02,0,.02,0,.53,0,1.01.35,1.17.86l11.17,35.34c.12.37.05.78-.18,1.09-.23.31-.6.5-.99.5-.59,0-1.1-.42-1.21-.98l-9.87-31.25-8.57,31.33c-.15.54-.64.9-1.18.9Z"/>
    <circle class="cls-1" cx="69.15" cy="111.02" r="1.22"/>
    <path class="cls-1" d="m55.07,122.25c-8.9,0-16.14-7.23-16.14-16.12,0-.68.55-1.22,1.23-1.22h29.83c.68,0,1.23.55,1.23,1.22s-.55,1.22-1.23,1.22h-28.55c.62,6.97,6.5,12.45,13.63,12.45,4.23,0,8.15-1.91,10.77-5.23.42-.53,1.19-.62,1.72-.21.53.42.62,1.19.21,1.72-3.08,3.92-7.71,6.17-12.7,6.17Z"/>
    <g>
      <path class="cls-1" d="m134.51,83.4c-.11,0-.22-.01-.32-.04-.65-.18-1.04-.85-.86-1.5l9.67-35.34c.14-.52.62-.89,1.16-.9.54-.04,1.03.34,1.19.86l11.17,35.34c.12.37.05.78-.18,1.09-.23.31-.6.5-.99.5-.59,0-1.1-.42-1.21-.98l-9.87-31.25-8.57,31.33c-.15.54-.64.9-1.18.9Z"/>
      <circle class="cls-1" cx="159" cy="87.07" r="1.22"/>
      <path class="cls-1" d="m144.93,98.3c-8.9,0-16.14-7.23-16.14-16.12,0-.68.55-1.22,1.23-1.22h29.83c.68,0,1.23.55,1.23,1.22s-.55,1.22-1.23,1.22h-28.55c.62,6.97,6.5,12.45,13.63,12.45,4.23,0,8.15-1.91,10.77-5.23.42-.53,1.19-.62,1.72-.21.53.42.62,1.19.21,1.72-3.08,3.92-7.71,6.17-12.7,6.17Z"/>
    </g>
  </g>
</svg>