<svg xmlns="http://www.w3.org/2000/svg" viewBox="0 0 150 150"> <path fill="white" d="M59.3,94.9c-1.1,0-2,0.9-2,2s0.9,2,2,2s2-0.9,2-2S60.4,94.9,59.3,94.9z"></path> <g> <path fill="none" stroke="white" stroke-width="3" stroke-miterlimit="10" d="M70.7,89.4"></path> <path fill="none" stroke="#1D1D1B" stroke-width="3" stroke-miterlimit="10" d="M86,62.7"></path> <g> <path fill="none" stroke="white" stroke-width="3" stroke-miterlimit="10" d="M100.5,125.8H50.3c-2.3,0-4.4-1.2-5.5-3.2L19.7,79.2c-1.1-2-1.1-4.4,0-6.3l25.1-43.5c1.1-2,3.2-3.2,5.5-3.2			h50.2c2.3,0,4.4,1.2,5.5,3.2l25.1,43.5c1.1,2,1.1,4.4,0,6.3L106,122.7C104.8,124.6,102.7,125.8,100.5,125.8z"></path> </g> <path fill="none" stroke="white" stroke-width="3" stroke-miterlimit="10" stroke-linecap="round" d="M83.7,68.2L70,83.4c-0.8,0.9-2.3,0.8-2.9-0.3l-3.3-5.2"></path> <path fill="none" stroke="white" stroke-width="3" stroke-miterlimit="10" stroke-linecap="round" d="M55.4,92.3c-2-0.1-4.1-0.1-4.8-1.3c-1.4-2.2,2.8-6.8,2.1-9.4c-0.7-2.6-6.4-4.7-6.3-7.3
		c0.2-2.6,6.2-3.9,7.2-6.3c1-2.4-2.5-7.6-0.8-9.6c1.7-2,7.3,0.5,9.6-0.9c2.2-1.4,2.4-7.5,5-8.2c2.6-0.7,5.7,4.7,8.3,4.9
		c2.6,0.2,6.5-4.7,8.9-3.7c2.4,1,1.8,7.1,3.8,8.8c2,1.7,7.9,0,9.3,2.2c1.4,2.2-2.8,6.8-2.1,9.4c0.7,2.6,6.4,4.7,6.3,7.3
		c-0.2,2.6-6.2,3.9-7.2,6.3c-1,2.4,2.5,7.6,0.8,9.6c-1.7,2-7.3-0.5-9.6,0.9c-2.2,1.4-2.4,7.5-5,8.2c-2.6,0.7-5.7-4.7-8.3-4.9
		c-2.6-0.2-6.5,4.7-8.9,3.7"></path> </g> </svg>