<svg xmlns="http://www.w3.org/2000/svg" viewBox="0 0 150 150">
  <path d="M100.1 124.8H49.9c-2.3 0-4.4-1.2-5.5-3.2L19.3 78.2c-1.1-2-1.1-4.4 0-6.3l25.1-43.5c1.1-2 3.2-3.2 5.5-3.2h50.2c2.3 0 4.4 1.2 5.5 3.2l25.1 43.5c1.1 2 1.1 4.4 0 6.3l-25.1 43.5c-1.1 1.9-3.3 3.1-5.5 3.1z" fill="none" stroke="#fff" stroke-width="3" stroke-miterlimit="10"></path>
  <path fill="none" stroke="#fff" stroke-width="3" stroke-linecap="round" stroke-linejoin="round" stroke-miterlimit="10" d="M70.8 97.5V40.8h8.4v68.4h-8.4M78.1 92h-6.6m6.6-17.1h-6.6m6.6-17h-6.6"></path>
  <path d="M78.6 58.4c4.9-4.9 34.2-10.9 27.4 27.4 0 0-4.8-11.8-12.4-20.1-7-7.6-15-7.3-15-7.3zm-7.2-17.3c-1.1-1.1-3.2-2.1-5.9-2.9-2.1-.6-4.6-.9-7.1-.7-9.1.6-18.6 7.4-14.4 31 0 0 4.8-11.8 12.4-20.1.7-.8 1.5-1.5 2.2-2.1 6.4-5.4 12.8-5.2 12.8-5.2z" fill="none" stroke="#fff" stroke-width="3" stroke-linecap="round" stroke-linejoin="round" stroke-miterlimit="10"></path>
  <circle cx="70.9" cy="103.3" r="1.5" fill="#fff"></circle>
</svg>