<svg xmlns="http://www.w3.org/2000/svg" viewBox="0 0 150 150"> <g> <path fill="none" stroke="white" stroke-miterlimit="10" stroke-width="3" d="M100.1 124.8H49.9c-2.3 0-4.4-1.2-5.5-3.2L19.3 78.2c-1.1-2-1.1-4.4 0-6.3l25.1-43.5c1.1-2 3.2-3.2 5.5-3.2h50.2c2.3 0 4.4 1.2 5.5 3.2l25.1 43.5c1.1 2 1.1 4.4 0 6.3l-25.1 43.5c-1.1 1.9-3.3 3.1-5.5 3.1z"></path> </g> <g> <path fill="none" stroke="white" stroke-linecap="round" stroke-linejoin="round" stroke-miterlimit="10" stroke-width="3" d="M104.8 89H45.5c.9-11.4 9-24.8 21.8-27.9v13.6c0 .9 1.5 1.7 2.4 1.7 2 0 2.9-.7 2.9-1.7V57.6c0-1.5 1.1-3 2.8-3 1.5 0 2.8 1.3 2.8 2.9v17.1c0 .9 1.1 1.7 2.9 1.7.9 0 2.4-.7 2.4-1.7V61.5c8.8 2.3 15.4 9.5 18.8 17.3"></path> <path fill="none" stroke="white" stroke-linecap="round" stroke-miterlimit="10" stroke-width="3" d="M111 95.3H39c-1.4 0-2.5-1.1-2.5-2.5v-1.3c0-1.4 1.1-2.5 2.5-2.5h72c1.4 0 2.5 1.1 2.5 2.5v1.3c0 1.4-1.1 2.5-2.5 2.5z"></path> <circle cx="104.1" cy="83.3" r="1.5" fill="white"></circle> </g> </svg>