<?xml version="1.0" encoding="UTF-8"?><svg id="Layer_1" xmlns="http://www.w3.org/2000/svg" viewBox="0 0 150 150"><defs><style>.cls-1,.cls-2,.cls-3{stroke-width:3px;}.cls-1,.cls-2,.cls-3,.cls-4,.cls-5{fill:none;stroke:#ef7e00;stroke-miterlimit:10;}.cls-1,.cls-3{stroke-linecap:round;}.cls-3{stroke-dasharray:0 0 0 4.95;}.cls-6{fill:#ef7e00;}.cls-4{stroke-width:2.69px;}.cls-5{stroke-width:2px;}</style></defs><circle class="cls-6" cx="100.68" cy="99.78" r="1.7"/><circle class="cls-6" cx="101.03" cy="83.38" r="1.7"/><g><path class="cls-1" d="m69.8,117.8h-26.7c-2.4,0-4.3-1.9-4.3-4.3V38.2c0-2.4,1.9-4.3,4.3-4.3h13.1m27.1.1h13.7c2.4,0,4.3,1.9,4.3,4.3v38"/><path class="cls-4" d="m83.6,39.8h-27.2c-.3,0-.5-.3-.5-.6l1.7-9.3c.2-1,1.1-1.8,2.1-1.8h20.5c1,0,1.9.7,2.1,1.8l1.7,9.3c.1.4-.1.6-.4.6Z"/><path class="cls-3" d="m57,51.6h36.6"/><path class="cls-1" d="m57,64.2h35.2m-35.2,12.6h35.2"/></g><circle class="cls-6" cx="48.62" cy="51.74" r="1.7"/><circle class="cls-6" cx="48.59" cy="64.26" r="1.7"/><circle class="cls-6" cx="48.66" cy="76.79" r="1.7"/><circle class="cls-2" cx="92.2" cy="107.4" r="19"/><path class="cls-1" d="m81.5,110.6l6.2,5.6c.2.2.4.1.6,0l9.1-12.4"/><path class="cls-5" d="m66.5,27.1c0-2,1.6-3.5,3.5-3.5,2,0,3.5,1.6,3.5,3.5"/></svg>