<svg xmlns="http://www.w3.org/2000/svg" viewBox="0 0 150 150"> <g> <g> <path fill="none" stroke="white" stroke-miterlimit="10" stroke-width="3" d="M100.8 125.6H50.6c-2.3 0-4.4-1.2-5.5-3.2L20 78.9c-1.1-2-1.1-4.4 0-6.3l25.1-43.5c1.1-2 3.2-3.2 5.5-3.2h50.2c2.3 0 4.4 1.2 5.5 3.2l25.1 43.5c1.1 2 1.1 4.4 0 6.3l-25.1 43.5c-1.1 1.9-3.2 3.2-5.5 3.2z"></path> </g> </g> <path fill="white" d="M81.2 53c-1.1 0-2 .9-2 2s.9 2 2 2 2-.9 2-2-.9-2-2-2z"></path> <g> <path fill="none" stroke="white" stroke-linecap="round" stroke-linejoin="round" stroke-miterlimit="10" stroke-width="3" d="M85.3 64l21.5 3.3-15.7 15.1 3.5 21.4-19.2-10.2-19.3 10 3.8-21.4-15.4-15.3 21.5-3 9.8-19.5"></path> </g> </svg>