<svg xmlns="http://www.w3.org/2000/svg" viewBox="0 0 150 150"> <path d="M100.1 124.8H49.9c-2.3 0-4.4-1.2-5.5-3.2L19.3 78.2c-1.1-2-1.1-4.4 0-6.3l25.1-43.5c1.1-2 3.2-3.2 5.5-3.2h50.2c2.3 0 4.4 1.2 5.5 3.2l25.1 43.5c1.1 2 1.1 4.4 0 6.3l-25.1 43.5c-1.1 1.9-3.3 3.1-5.5 3.1z" fill="none" stroke="white" stroke-width="3" stroke-miterlimit="10"></path> <path d="M99.4 111.3c-.8 0-1.5.7-1.5 1.5s.7 1.5 1.5 1.5 1.5-.7 1.5-1.5-.6-1.5-1.5-1.5z" fill="#1d1d1b"></path> <path d="M71.4 113.3v-12c0-3.6 2.9-6.4 6.4-6.4h15c3.6 0 6.5 2.9 6.5 6.4v5.5M85.2 88.4h.5c3.6 0 6.5-2.9 6.5-6.5v-3.6c0-3.6-2.9-6.5-6.5-6.5h-.5c-3.6 0-6.5 2.9-6.5 6.5v3.6c0 3.6 2.9 6.5 6.5 6.5zM71.4 100V82c0-4-3.4-7.2-7.4-7.2H47c-4 0-7.3 3.2-7.3 7.2v12.6m15.6-27.1h.6c4 0 7.4-3.3 7.4-7.4v-4c0-4-3.3-7.4-7.4-7.4h-.6c-4 0-7.4 3.3-7.4 7.4v4c0 4.1 3.3 7.4 7.4 7.4z" fill="none" stroke="white" stroke-width="3" stroke-linecap="round" stroke-miterlimit="10"></path> <path d="M71.5 95.5v-22c0-4.9 4.2-8.9 9.1-8.9h20.8c4.9 0 8.9 4 8.9 8.9v21.1M91.2 55.7h-.7c-5 0-9-4.1-9-9v-4.9c0-5 4.1-9 9-9h.7c5 0 9 4.1 9 9v4.9c0 5-4 9-9 9z" fill="none" stroke="white" stroke-width="3" stroke-linecap="round" stroke-miterlimit="10"></path> </svg>