<svg xmlns="http://www.w3.org/2000/svg" viewBox="0 0 150 150">
  <g fill="none" stroke="#e6a400" stroke-linecap="round" stroke-miterlimit="10" stroke-width="3">
    <path d="M44.2 87.3V75.4c0-5.8 4.9-10.4 10.7-10.4h24.5c2 0 3.8.5 5.4 1.5M67.5 54.4h-.8c-5.8 0-10.6-4.8-10.6-10.6V38c0-5.8 4.8-10.6 10.6-10.6h.8c5.8 0 10.6 4.8 10.6 10.6v5.8c0 5.8-4.8 10.6-10.6 10.6zm17.3 12c1.4-2.4 4-4.1 7-4.1H110c4.3 0 7.8 3.5 7.8 7.8v12.5m-16.7-28.1h-.6c-4.3 0-7.9-3.6-7.9-7.9v-4.3c0-4.3 3.6-7.9 7.9-7.9h.6c4.3 0 7.9 3.6 7.9 7.9v4.3c-.1 4.4-3.6 7.9-7.9 7.9z"/>
    <path stroke-dasharray="0 4.955" d="M84.1 66.2c3.1 1.8 5.1 5.1 5.1 9v16.2"/>
  </g>
  <ellipse fill="#e6a400" cx="32.9" cy="112.2" rx="1.7" ry="1.7" transform="rotate(-88.581 32.856 112.201)"/>
  <path fill="none" stroke="#e6a400" stroke-linecap="round" stroke-miterlimit="10" stroke-width="3" d="M32.8 106.5v-14c0-.3.2-.5.5-.5h8.3c1.7 0 3 1.3 3 3v16.7c0 .3-.2.5-.5.5h-5.3m6.1-17.6h8.9c2.7 0 5.2 1.1 7.1 2.9l10.8 10.8c1.5 1.5 1.5 3.9 0 5.3-1.5 1.5-3.9 1.5-5.3 0l-7.3-7.3"/>
  <path fill="none" stroke="#e6a400" stroke-linecap="round" stroke-miterlimit="10" stroke-width="3" d="M45.6 109.2c2.7 0 5.2 1.1 7.1 2.9l7.6 7.6c1.9 1.9 4.4 2.9 7.1 2.9h18.8c2 0 3.7-1.6 3.7-3.7 0-2-1.6-3.7-3.7-3.7h-9"/>
  <ellipse fill="#e6a400" cx="117.7" cy="101.6" rx="1.1" ry="1.1" transform="rotate(-1.419 117.679 101.565)"/>
  <path fill="none" stroke="#e6a400" stroke-linecap="round" stroke-miterlimit="10" stroke-width="2" d="M117.7 97.7v-9.6c0-.2-.2-.3-.3-.3h-5.7c-1.1 0-2 .9-2 2v11.4c0 .2.2.3.3.3h3.6m-4.1-12h-6c-1.8 0-3.5.7-4.8 2l-7.4 7.4c-1 1-1 2.6 0 3.6s2.6 1 3.6 0l5-5"/>
  <path fill="none" stroke="#e6a400" stroke-linecap="round" stroke-miterlimit="10" stroke-width="2" d="M109 99.5c-1.8 0-3.5.7-4.8 2l-5.2 5.2c-1.3 1.3-3 2-4.8 2H81.3c-1.4 0-2.5-1.1-2.5-2.5s1.1-2.5 2.5-2.5h6.1"/>
</svg>