<svg xmlns="http://www.w3.org/2000/svg" viewBox="0 0 150 150"> <path fill="white" d="M83.3 98c-1.1 0-2 .9-2 2s.9 2 2 2 2-.9 2-2-.9-2-2-2z"></path> <g> <g> <path fill="none" stroke="white" stroke-miterlimit="10" stroke-width="3" d="M100.3 125.9H50.1c-2.3 0-4.4-1.2-5.5-3.2L19.5 79.3c-1.1-2-1.1-4.4 0-6.3l25.1-43.5c1.1-2 3.2-3.2 5.5-3.2h50.2c2.3 0 4.4 1.2 5.5 3.2L130.9 73c1.1 2 1.1 4.4 0 6.3l-25.1 43.5c-1.1 1.9-3.2 3.1-5.5 3.1z"></path> </g> <g> <path fill="none" stroke="white" stroke-linecap="round" stroke-linejoin="round" stroke-miterlimit="10" stroke-width="3" d="M80.7 61.6l-22 10.2m0 8.5l22 10.2m14.2-32c0-4.1-3.3-7.5-7.5-7.5S80 54.4 80 58.5c0 1.1.2 2.2.7 3.1.2.4.4.7.6 1.1 1.3 2 3.6 3.3 6.2 3.3 4.1 0 7.4-3.3 7.4-7.5zm-5.5 42.3c3.2-.9 5.5-3.8 5.5-7.2 0-4.1-3.3-7.5-7.5-7.5-2.6 0-4.8 1.3-6.2 3.3-.2.3-.4.7-.6 1.1-.4.9-.7 2-.7 3.1M60 76.1c0-1.6-.5-3-1.3-4.2-1.3-1.9-3.6-3.2-6.1-3.2-4.1 0-7.5 3.3-7.5 7.5s3.3 7.5 7.5 7.5c2.6 0 4.8-1.3 6.2-3.3.7-1.3 1.2-2.8 1.2-4.3z"></path> </g> </g> </svg>