<?xml version="1.0" encoding="UTF-8"?>
<svg id="Layer_1" data-name="Layer 1" xmlns="http://www.w3.org/2000/svg" viewBox="0 0 200 173.7">
  <defs>
    <style>
      .cls-1 {
        fill: #333;
      }

      .cls-2 {
        fill: none;
        stroke: #f49824;
        stroke-width: 2.4px;
      }
    </style>
  </defs>
  <g>
    <g>
      <path class="cls-1" d="m55.49,139.87c-.31,0-.62-.12-.86-.36l-7.1-7.1c-1.74-1.74-1.74-4.56,0-6.3l19.89-19.89c2.14-2.14,4.98-3.32,8.01-3.32h43.83c4.29,0,7.79,3.49,7.79,7.79s-3.49,7.79-7.79,7.79h-24.47c-.67,0-1.22-.55-1.22-1.22s.54-1.22,1.22-1.22h24.47c2.95,0,5.35-2.4,5.35-5.35s-2.4-5.35-5.35-5.35h-43.83c-2.37,0-4.61.92-6.29,2.6l-19.89,19.89c-.79.79-.79,2.07,0,2.86l7.1,7.1c.48.48.48,1.25,0,1.72-.24.24-.55.36-.86.36Z"/>
      <path class="cls-1" d="m64.67,147.71c-1.14,0-2.28-.43-3.15-1.3-.48-.48-.48-1.25,0-1.72s1.25-.48,1.72,0c.79.79,2.07.79,2.86,0l6.47-6.47c.84-.84,1.96-1.31,3.15-1.31h35.05c.95,0,1.85-.37,2.53-1.05l36.47-36.47c1.01-1.01,1.57-2.35,1.57-3.78s-.56-2.77-1.57-3.78c-2.09-2.09-5.48-2.08-7.56,0l-12.4,12.4c-.48.48-1.25.48-1.72,0s-.48-1.25,0-1.72l12.4-12.4c3.03-3.03,7.97-3.03,11.01,0,3.03,3.03,3.03,7.97,0,11.01l-36.47,36.47c-1.13,1.14-2.64,1.76-4.25,1.76h-35.05c-.54,0-1.05.21-1.43.59l-6.47,6.47c-.87.87-2.01,1.3-3.15,1.3Z"/>
      <path class="cls-1" d="m95.52,89.91l-.83-.77c-11.11-10.34-16.51-21.29-16.05-32.55.72-17.66,15.5-29.51,16.13-30l.75-.59.75.59c.63.5,15.41,12.35,16.13,30,.46,11.26-4.94,22.21-16.05,32.55l-.83.77Zm0-60.77c-2.99,2.65-13.87,13.25-14.45,27.57-.41,10.23,4.45,20.27,14.45,29.86,10-9.59,14.86-19.64,14.45-29.86-.58-14.32-11.46-24.92-14.45-27.57Z"/>
      <path class="cls-1" d="m103.32,98.45c-5.02,0-9.1-4.08-9.1-9.1v-39.49c0-.67.54-1.22,1.22-1.22s1.22.54,1.22,1.22v39.49c0,3.68,2.99,6.67,6.67,6.67.67,0,1.22.55,1.22,1.22s-.55,1.22-1.22,1.22Z"/>
      <g>
        <path class="cls-1" d="m95.44,58.71c-.31,0-.62-.12-.86-.36-.48-.48-.48-1.25,0-1.72l7.63-7.63c.48-.48,1.25-.48,1.72,0,.48.48.48,1.25,0,1.72l-7.63,7.63c-.24.24-.55.36-.86.36Z"/>
        <path class="cls-1" d="m95.44,67.55c-.31,0-.62-.12-.86-.36-.48-.48-.48-1.25,0-1.72l7.63-7.63c.48-.48,1.25-.48,1.72,0,.48.48.48,1.25,0,1.72l-7.63,7.63c-.24.24-.55.36-.86.36Z"/>
        <path class="cls-1" d="m95.44,76.38c-.31,0-.62-.12-.86-.36-.48-.48-.48-1.25,0-1.72l7.63-7.63c.48-.48,1.25-.48,1.72,0,.48.48.48,1.25,0,1.72l-7.63,7.63c-.24.24-.55.36-.86.36Z"/>
      </g>
      <path class="cls-1" d="m84.12,98.67c-7.45,0-13.19-2.13-17.07-6.35-6.48-7.03-5.36-17.2-5.31-17.63l.11-.95.95-.11c.43-.05,10.6-1.17,17.63,5.31,4.49,4.14,6.62,10.37,6.33,18.53l-.04,1.13-1.13.04c-.49.02-.98.03-1.46.03Zm1.42-1.24h0,0Zm-21.45-21.45c-.09,2.6.14,9.7,4.76,14.7,3.44,3.73,8.65,5.56,15.5,5.55.04-6.84-1.82-12.05-5.55-15.5-5-4.62-12.1-4.85-14.7-4.76Z"/>
      <path class="cls-1" d="m110.95,98.67c-.31,0-.62,0-.93-.02l-1.13-.04-.04-1.13c-.19-5.26,1.2-9.29,4.11-11.97,4.56-4.2,11.14-3.48,11.42-3.45l.95.11.11.95c.03.28.76,6.85-3.45,11.42-2.53,2.74-6.24,4.13-11.04,4.13Zm12.06-14.24c-1.84,0-5.67.34-8.42,2.88-2.16,1.99-3.27,4.99-3.33,8.93,3.93-.06,6.93-1.17,8.93-3.33,2.57-2.77,2.89-6.65,2.88-8.47h-.06Z"/>
      <path class="cls-1" d="m91.14,98.64h-5.6c-.67,0-1.22-.55-1.22-1.22s.54-1.22,1.22-1.22h5.6c.67,0,1.22.55,1.22,1.22s-.54,1.22-1.22,1.22Z"/>
    </g>
    <circle class="cls-1" cx="58.94" cy="142.1" r="1.22"/>
    <circle class="cls-1" cx="95.44" cy="44.99" r="1.22"/>
  </g>
  <g id="Our-vision-_-culture" data-name="Our-vision-&amp;amp;-culture">
    <g id="Stroke-2">
      <polygon id="Stroke-1" class="cls-2" points="149.25 1.63 50.75 1.63 1.5 86.85 50.75 172.07 149.25 172.07 198.5 86.85 149.25 1.63"/>
    </g>
  </g>
</svg>