<?xml version="1.0" encoding="UTF-8"?>
<svg id="Layer_1" data-name="Layer 1" xmlns="http://www.w3.org/2000/svg" viewBox="0 0 200 173.7">
  <defs>
    <style>
      .cls-1 {
        fill: #333;
      }

      .cls-2 {
        stroke: #f49824;
        stroke-width: 2.4px;
      }

      .cls-2, .cls-3 {
        fill: none;
      }

      .cls-3 {
        stroke: #333;
        stroke-linecap: round;
        stroke-linejoin: round;
        stroke-width: 3px;
      }
    </style>
  </defs>
  <g>
    <path class="cls-3" d="m146.21,118.13c0-1.56-.12-3.13-.39-4.7l6.35-3.14-4.59-10.94-6.74,2.21c-1.87-2.58-4.14-4.79-6.67-6.58l2.24-6.67-11.08-4.53-3.19,6.28c-3.08-.51-6.26-.53-9.44,0l-3.17-6.28-11.08,4.53,2.24,6.67c-2.62,1.84-4.85,4.08-6.67,6.59l-6.75-2.22-4.59,10.94,6.36,3.14c-.26,1.55-.4,3.12-.4,4.7"/>
    <path class="cls-3" d="m106.22,118.13c0-5.95,5.03-10.78,11.25-10.78s11.24,4.83,11.24,10.78"/>
    <path class="cls-3" d="m146.21,118.13c0-1.56-.12-3.13-.39-4.7l6.35-3.14-4.59-10.94-6.74,2.21c-1.87-2.58-4.14-4.79-6.67-6.58l2.24-6.67-11.08-4.53-3.19,6.28c-3.08-.51-6.26-.53-9.44,0l-3.17-6.28-11.08,4.53,2.24,6.67c-2.62,1.84-4.85,4.08-6.67,6.59l-6.75-2.22-4.59,10.94,6.36,3.14c-.26,1.55-.4,3.12-.4,4.7"/>
    <path class="cls-3" d="m106.22,118.13c0-5.95,5.03-10.78,11.25-10.78s11.24,4.83,11.24,10.78"/>
    <path class="cls-3" d="m158.67,136.59c0-5.38-4.36-9.74-9.72-9.74H56.61c-5.37,0-9.72,4.36-9.72,9.74s4.36,9.74,9.72,9.74h92.34c5.37,0,9.72-4.36,9.72-9.74Z"/>
    <path class="cls-3" d="m158.67,136.59c0-5.38-4.36-9.74-9.72-9.74H56.61c-5.37,0-9.72,4.36-9.72,9.74s4.36,9.74,9.72,9.74h92.34c5.37,0,9.72-4.36,9.72-9.74Z"/>
    <path class="cls-3" d="m86.56,39.24l3.19-7.73-9.98-4.14-3.19,7.73c-1.32-.22-2.64-.32-3.94-.32-1.31,0-2.63.1-3.94.32l-3.19-7.73-9.98,4.14,3.19,7.73c-2.18,1.56-4.03,3.43-5.54,5.55l-7.72-3.2-4.13,10,7.72,3.2c-.43,2.57-.44,5.21,0,7.84l-7.72,3.2,4.13,10,7.71-3.2c1.55,2.18,3.43,4.04,5.54,5.54l-3.19,7.74,9.98,4.13,3.2-7.73c1.27.22,2.57.33,3.88.34h.11c1.31,0,2.61-.12,3.88-.34l3.2,7.73,9.98-4.13-3.19-7.74c2.11-1.51,3.99-3.37,5.54-5.54l7.71,3.2,4.13-10-7.72-3.2c.44-2.63.43-5.27,0-7.84l7.72-3.2m-31.34,16.38c-5.11,0-9.26-4.15-9.26-9.26s4.15-9.26,9.26-9.26,9.26,4.15,9.26,9.26-4.15,9.26-9.26,9.26Z"/>
    <circle class="cls-1" cx="100.01" cy="41.38" r="2.12"/>
    <circle class="cls-1" cx="145.51" cy="136.59" r="2.12"/>
    <circle class="cls-1" cx="123.85" cy="136.59" r="2.12"/>
    <circle class="cls-1" cx="102.18" cy="136.59" r="2.12"/>
    <circle class="cls-1" cx="80.51" cy="136.59" r="2.12"/>
    <circle class="cls-1" cx="58.85" cy="136.59" r="2.12"/>
  </g>
  <g id="Design">
    <g id="Our-vision-_-culture" data-name="Our-vision-&amp;amp;-culture">
      <g id="Stroke-2">
        <polygon id="Stroke-1" class="cls-2" points="149.25 1.63 50.75 1.63 1.5 86.85 50.75 172.07 149.25 172.07 198.5 86.85 149.25 1.63"/>
      </g>
    </g>
  </g>
</svg>