<?xml version="1.0" encoding="utf-8"?>
<!-- Generator: Adobe Illustrator 27.3.1, SVG Export Plug-In . SVG Version: 6.00 Build 0)  -->
<svg version="1.1" id="Layer_1" xmlns="http://www.w3.org/2000/svg" xmlns:xlink="http://www.w3.org/1999/xlink" x="0px" y="0px"
	 viewBox="0 0 254 100" style="enable-background:new 0 0 254 100;" xml:space="preserve">
<style type="text/css">
	.st0{fill:none;stroke:#F8981D;}
	.st1{fill:none;stroke:#F8981D;stroke-linecap:round;}
	.st2{filter:url(#Adobe_OpacityMaskFilter);}
	.st3{fill-rule:evenodd;clip-rule:evenodd;fill:#FFFFFF;}
	.st4{mask:url(#b_00000049936207376727542980000018235523799810503302_);fill-rule:evenodd;clip-rule:evenodd;fill:#E7871E;}
	.st5{filter:url(#Adobe_OpacityMaskFilter_00000171680322756657590960000002878240430512251053_);}
	.st6{mask:url(#b_00000113347435755392020390000010713876667746234265_);fill:#F8981D;}
	.st7{filter:url(#Adobe_OpacityMaskFilter_00000047049786933506087540000016933137328640120765_);}
	.st8{mask:url(#b_00000183221467655394714040000001194171464046646678_);fill-rule:evenodd;clip-rule:evenodd;fill:#E7871E;}
	.st9{filter:url(#Adobe_OpacityMaskFilter_00000029742652934034061710000017994132543522990245_);}
	.st10{mask:url(#b_00000106827940385248724330000003004543044900523696_);fill:#F8981D;}
	.st11{filter:url(#Adobe_OpacityMaskFilter_00000152255903561996369420000003453498793155947692_);}
	.st12{mask:url(#b_00000146498774988780853590000005558048833634701714_);fill-rule:evenodd;clip-rule:evenodd;fill:#E7871E;}
	.st13{filter:url(#Adobe_OpacityMaskFilter_00000106132203538565543140000002135684482349475237_);}
	.st14{mask:url(#b_00000163048619118597969320000000895178730628406965_);fill:#F8981D;}
	.st15{filter:url(#Adobe_OpacityMaskFilter_00000088117895400538717170000005200212188238531722_);}
	.st16{mask:url(#b_00000119106577207416785850000008766923039248509315_);fill-rule:evenodd;clip-rule:evenodd;fill:#FFFFFF;}
</style>
<g transform="translate(1 1)">
	<path class="st0" d="M199.6,48.8v-6.4h3.3l0.4-9.1l-18.8-15.5c-0.3-0.2-0.4-0.5-0.4-0.8c0-0.5,0.4-0.9,0.8-0.9
		c0.1,0,0.4,0.1,0.4,0.1l18.2,14.9l0.2-5.3h2l1.1,23 M184.5,17.8l18.7,19.4 M166,48.8v-6.4h-3.3l-0.4-9.1l18.8-15.5
		c0.3-0.2,0.4-0.5,0.4-0.8c0-0.5-0.4-0.9-0.8-0.9c-0.1,0-0.4,0.1-0.4,0.1l-18.2,14.9l-0.2-5.3h-2l-1.1,23 M181.1,17.8l-18.7,19.4
		 M116.6,48.8v-6.4h3.3l0.4-9.1l-18.8-15.5c-0.3-0.2-0.4-0.5-0.4-0.8c0-0.5,0.4-0.9,0.8-0.9c0.1,0,0.4,0.1,0.4,0.1l18.2,14.9
		l0.2-5.3h2l1.1,23 M101.5,17.8l18.7,19.4 M82.9,48.8v-6.4h-3.3l-0.4-9.1L98,17.8c0.3-0.2,0.4-0.5,0.4-0.8c0-0.5-0.4-0.9-0.8-0.9
		c-0.1,0-0.4,0.1-0.4,0.1L79.1,31.1l-0.2-5.3h-2l-1.1,23 M98,17.8L79.4,37.3 M62.8,57.1V27.3l3.5-7.4l-0.5-2.3
		c0-0.2-0.2-0.4-0.4-0.4h-3.7v-5h2.1c0.2,0,0.4-0.2,0.4-0.4v-0.7h-6.7v0.7c0,0.2,0.2,0.4,0.4,0.4h1.9v5h-3.9V5.8
		c0-0.2,0-0.8-0.8-0.8c-0.9,0-0.8,0.6-0.8,0.8v11.5H51v-8C51,9.1,50.9,9,50.7,9c0,0,0,0,0,0h-1.8c-0.2,0-0.3,0.1-0.3,0.3
		c0,0,0,0,0,0v8h-4.3l-1-3.1c0-0.1-0.2-0.2-0.3-0.2h-0.4V0.3h-2.7V14h-0.4c-0.1,0-0.3,0.1-0.3,0.2l-1,3.1h-2.8
		c-0.3,0-0.5,0.2-0.5,0.5l0,0v9.5h0v27.3 M31.3,41.3l-1.8-21.7l-0.3-3.1c0-0.2-0.2-0.4-0.5-0.4h-1.6v-4.2c0-0.2-0.1-0.3-0.3-0.3
		h-2.6c-0.2,0-0.3,0.2-0.3,0.3V16h-1.3v-1.3c0-0.2-0.1-0.3-0.3-0.3c0,0,0,0,0,0h-2c-0.2,0-0.3,0.1-0.3,0.3c0,0,0,0,0,0V16h-1.2
		c-0.3,0-0.5,0.2-0.5,0.5v32.3"/>
	<path class="st0" d="M35,41.3h-6v7.6H14.9c-0.2,0-0.3,0.1-0.3,0.3v5.4"/>
	<path class="st1" d="M173,57.3l-0.2-2.7h19.6l-0.2,2.7H173z M192.7,51l-0.2,2.3h-19.9l-0.2-2.3H192.7L192.7,51z M216.8,54.3
		c-1.1,0-1.9-0.9-1.9-1.9c0-1.1,0.9-1.9,1.9-1.9c1.1,0,1.9,0.9,1.9,1.9C218.7,53.4,217.9,54.3,216.8,54.3z M206.5,56.3
		c-0.4,0.7-1.2,1-1.9,1h-7.9l-0.2-2.7h8.1c1.3,0,1.8-1.1,1.8-2.3V51h3.6L206.5,56.3L206.5,56.3z M137.8,57.3v-2.6c0,0,0-0.1,0.1-0.1
		h7l-0.2,2.7H137.8L137.8,57.3z M133.1,57.3v-3.1c0-0.5-0.4-0.9-0.9-0.9h-7L125,51h20.3l-0.2,2.3h-7.6c-0.5,0-0.9,0.4-0.9,0.9v3.1
		L133.1,57.3L133.1,57.3z M125.6,57.3l-0.2-2.7h6.4c0,0,0.1,0,0.1,0.1v2.6L125.6,57.3L125.6,57.3z M149.2,57.3l-0.2-2.7h19.6
		l-0.2,2.7H149.2L149.2,57.3z M102.2,57.3l-0.2-2.7h19.6l-0.2,2.7H102.2z M78.7,57.3l-0.2-2.7h19.6l-0.2,2.7H78.7L78.7,57.3z
		 M67.1,53.3c-0.6,0-1-0.4-1-1V51h8.8l-0.2,2.3H67.1z M98.4,51l-0.2,2.3H78.3L78.1,51H98.4z M122,51l-0.2,2.3h-19.9l-0.2-2.3
		C101.6,51,122,51,122,51z M168.9,51l-0.2,2.3h-19.9l-0.2-2.3H168.9z M205.1,51v1.3c0,0.5-0.4,1-1,1h-7.8l-0.2-2.3H205.1L205.1,51z
		 M251.2,86c0.8-1.9,1.3-3.9,1.3-6c0-4.4-3.5-7.9-7.9-7.9c-1.9,0-3.4-1.2-4-2.7c-0.5-1.2-0.4-2.6,0.3-3.8l10.1-17.7
		c0.2-0.4,0.1-0.9-0.3-1.2c-0.1-0.1-0.3-0.1-0.4-0.1h-36.3c-0.8,0-1.5,0.4-1.9,1l-0.7,1.1H62.8V51h2.1v1.3c0,1.2,1,2.3,1.8,2.3h7.9
		l-0.2,2.7H58.2l-2.4-2.3c-0.2-0.2-0.4-0.3-0.7-0.3H0.7c-0.2,0-0.4,0.2-0.4,0.4v15c0,2.5,1.7,4.6,4.1,5.2l3.8,0.9v1.7H2.2
		c-0.4,0-0.7,0.3-0.7,0.7c0,0,0,0,0,0v15.8c0,0.4,0.3,0.7,0.7,0.7h7.9c0.7,0,1.3-0.6,1.4-1.3l1.2-16.5l5,1.2c3.6,0.8,6.1,4,6.1,7.7
		c0,0.7-0.6,1.3-1.3,1.3c-1.5,0-2.8,0.9-3.3,2.3h-1.1v-1.3c0-0.1,0-0.2,0-0.3l-0.9-2.9c-0.1-0.4-0.5-0.7-0.9-0.7
		c-0.3,0-0.5,0.2-0.5,0.5v4.7c-0.7,0-1.3,0.6-1.3,1.3c0,0.7,0.6,1.3,1.3,1.3v4.7c0,0.3,0.2,0.5,0.5,0.5c0.4,0,0.8-0.3,0.9-0.7
		l0.9-2.9c0-0.1,0-0.2,0-0.3v-1.3h1.1c0.5,1.4,1.9,2.3,3.3,2.3h215.4c4.1,0,8-1.7,10.8-4.7C248.6,89.9,251.2,86,251.2,86z"/>
	<path class="st0" d="M236.5,46.6l-1.2-4.4c-0.1-0.4-0.5-0.7-0.9-0.7h-0.2c-0.8-1.3-2.2-2.2-3.8-2.2c-1.6,0-3.1,0.9-3.8,2.2h-0.2
		c-0.4,0-0.8,0.3-0.9,0.7l-1.2,4.4H236.5z M65.3,22.2H45.1c-0.2,0-0.3,0.1-0.4,0.2l-1.2,2.4c0,0,0,0.1,0,0.1c0,0,0.1,0.1,0.1,0.1H64
		 M61.9,22.2l-1.4,2.8 M58.5,22.2l-1.4,2.8 M55.1,22.2l-1.4,2.8 M48.2,22.2l-1.4,2.8 M51.6,22.2l-1.4,2.8"/>
	<defs>
		<filter id="Adobe_OpacityMaskFilter" filterUnits="userSpaceOnUse" x="40" y="33.4" width="24.5" height="1.6">
			<feColorMatrix  type="matrix" values="1 0 0 0 0  0 1 0 0 0  0 0 1 0 0  0 0 0 1 0"/>
		</filter>
	</defs>
	
		<mask maskUnits="userSpaceOnUse" x="40" y="33.4" width="24.5" height="1.6" id="b_00000049936207376727542980000018235523799810503302_">
		<g class="st2">
			<path id="a_00000124850119232244243730000015642179891111215781_" class="st3" d="M0,97.9h252.8V0H0V97.9z"/>
		</g>
	</mask>
	<path class="st4" d="M40,35h24.5v-1.6H40V35z"/>
	<defs>
		
			<filter id="Adobe_OpacityMaskFilter_00000048494917327194001150000001150647068068392086_" filterUnits="userSpaceOnUse" x="40" y="33.4" width="24.5" height="1.6">
			<feColorMatrix  type="matrix" values="1 0 0 0 0  0 1 0 0 0  0 0 1 0 0  0 0 0 1 0"/>
		</filter>
	</defs>
	
		<mask maskUnits="userSpaceOnUse" x="40" y="33.4" width="24.5" height="1.6" id="b_00000113347435755392020390000010713876667746234265_">
		<g style="filter:url(#Adobe_OpacityMaskFilter_00000048494917327194001150000001150647068068392086_);">
			<path id="a_00000129169479620539278730000016796031787703242665_" class="st3" d="M0,97.9h252.8V0H0V97.9z"/>
		</g>
	</mask>
	<path class="st6" d="M40,35h24.5v-1.6H40V35z"/>
	<defs>
		
			<filter id="Adobe_OpacityMaskFilter_00000033359770729664200490000012952293775172659640_" filterUnits="userSpaceOnUse" x="40" y="38.4" width="24.5" height="1.6">
			<feColorMatrix  type="matrix" values="1 0 0 0 0  0 1 0 0 0  0 0 1 0 0  0 0 0 1 0"/>
		</filter>
	</defs>
	
		<mask maskUnits="userSpaceOnUse" x="40" y="38.4" width="24.5" height="1.6" id="b_00000183221467655394714040000001194171464046646678_">
		<g style="filter:url(#Adobe_OpacityMaskFilter_00000033359770729664200490000012952293775172659640_);">
			<path id="a_00000067938032935272623620000014444266443660959654_" class="st3" d="M0,97.9h252.8V0H0V97.9z"/>
		</g>
	</mask>
	<path class="st8" d="M40,40h24.5v-1.6H40V40z"/>
	<defs>
		
			<filter id="Adobe_OpacityMaskFilter_00000100375430373095775720000005586471353738084783_" filterUnits="userSpaceOnUse" x="40" y="38.4" width="24.5" height="1.6">
			<feColorMatrix  type="matrix" values="1 0 0 0 0  0 1 0 0 0  0 0 1 0 0  0 0 0 1 0"/>
		</filter>
	</defs>
	
		<mask maskUnits="userSpaceOnUse" x="40" y="38.4" width="24.5" height="1.6" id="b_00000106827940385248724330000003004543044900523696_">
		<g style="filter:url(#Adobe_OpacityMaskFilter_00000100375430373095775720000005586471353738084783_);">
			<path id="a_00000157994207710208747810000003098345941385387193_" class="st3" d="M0,97.9h252.8V0H0V97.9z"/>
		</g>
	</mask>
	<path class="st10" d="M40,40h24.5v-1.6H40V40z"/>
	<defs>
		
			<filter id="Adobe_OpacityMaskFilter_00000165917562913014725790000008215056988325884835_" filterUnits="userSpaceOnUse" x="40" y="43.4" width="24.5" height="1.6">
			<feColorMatrix  type="matrix" values="1 0 0 0 0  0 1 0 0 0  0 0 1 0 0  0 0 0 1 0"/>
		</filter>
	</defs>
	
		<mask maskUnits="userSpaceOnUse" x="40" y="43.4" width="24.5" height="1.6" id="b_00000146498774988780853590000005558048833634701714_">
		<g style="filter:url(#Adobe_OpacityMaskFilter_00000165917562913014725790000008215056988325884835_);">
			<path id="a_00000134244526115046715390000017401897955052557452_" class="st3" d="M0,97.9h252.8V0H0V97.9z"/>
		</g>
	</mask>
	<path class="st12" d="M40,44.9h24.5v-1.6H40V44.9z"/>
	<defs>
		
			<filter id="Adobe_OpacityMaskFilter_00000155837833514389584830000016515777307971330195_" filterUnits="userSpaceOnUse" x="40" y="43.4" width="24.5" height="1.6">
			<feColorMatrix  type="matrix" values="1 0 0 0 0  0 1 0 0 0  0 0 1 0 0  0 0 0 1 0"/>
		</filter>
	</defs>
	
		<mask maskUnits="userSpaceOnUse" x="40" y="43.4" width="24.5" height="1.6" id="b_00000163048619118597969320000000895178730628406965_">
		<g style="filter:url(#Adobe_OpacityMaskFilter_00000155837833514389584830000016515777307971330195_);">
			<path id="a_00000093167436068152312830000004569427494984838817_" class="st3" d="M0,97.9h252.8V0H0V97.9z"/>
		</g>
	</mask>
	<path class="st14" d="M40,44.9h24.5v-1.6H40V44.9z"/>
	<defs>
		
			<filter id="Adobe_OpacityMaskFilter_00000132772079405980045260000017098739209289560996_" filterUnits="userSpaceOnUse" x="249.6" y="87.7" width="0.8" height="0.8">
			<feColorMatrix  type="matrix" values="1 0 0 0 0  0 1 0 0 0  0 0 1 0 0  0 0 0 1 0"/>
		</filter>
	</defs>
	
		<mask maskUnits="userSpaceOnUse" x="249.6" y="87.7" width="0.8" height="0.8" id="b_00000119106577207416785850000008766923039248509315_">
		<g style="filter:url(#Adobe_OpacityMaskFilter_00000132772079405980045260000017098739209289560996_);">
			<path id="a_00000041265500235715865460000008929684583278484131_" class="st3" d="M0,97.9h252.8V0H0V97.9z"/>
		</g>
	</mask>
	<path class="st16" d="M250.4,88.1c0,0.2-0.2,0.4-0.4,0.4c-0.2,0-0.4-0.2-0.4-0.4l0,0c0-0.2,0.2-0.4,0.4-0.4
		C250.2,87.7,250.4,87.8,250.4,88.1"/>
</g>
</svg>
