<svg xmlns="http://www.w3.org/2000/svg" viewBox="0 0 150 150">
  <path fill="none" stroke="#091f46" stroke-linecap="round" stroke-miterlimit="10" stroke-width="3" d="M32.2 92.3c7 0 12.6 5.6 12.6 12.6s-5.6 12.6-12.6 12.6-12.6-5.6-12.6-12.6c0-3.1 1.1-5.9 2.9-8.1"/>
  <ellipse fill="#091f46" cx="26.7" cy="93.5" rx="1.7" ry="1.7" transform="rotate(-88.581 26.71 93.471)"/>
  <path fill="none" stroke="#091f46" stroke-linecap="round" stroke-miterlimit="10" stroke-width="3" d="M121.6 87c-3.9.5-6.9 3.8-6.9 7.8 0 4.3 3.5 7.8 7.8 7.8s7.8-3.5 7.8-7.8c0-.8-.1-1.7-.4-2.4"/>
  <ellipse fill="#091f46" cx="126.7" cy="88" rx="1.6" ry="1.6" transform="rotate(-1.419 126.663 88.046)"/>
  <g fill="none" stroke="#091f46" stroke-miterlimit="10">
    <path stroke="#091f46" stroke-dasharray="0 4.955" stroke-linecap="round" stroke-width="3" d="M87.7 68h28.8m-69.8 0h28.7"/>
    <circle cx="82.1" cy="67.9" r="35.3" stroke-width="3.094"/>
    <path stroke="#091f46" stroke-width="3.44" d="M82.1 62.3V32.5"/>
    <path stroke="#091f46" stroke-width="3.421" d="M82.1 103.5V73.8"/>
    <circle cx="82.1" cy="68" r="5.7" stroke="#091f46" stroke-width="3.325"/>
    <circle cx="66.8" cy="82.4" r="5.7" stroke="#091f46" stroke-width="3.325"/>
    <circle cx="97.4" cy="82.4" r="5.7" stroke="#091f46" stroke-width="3.325"/>
    <circle cx="66.8" cy="53.6" r="5.7" stroke="#091f46" stroke-width="3.325"/>
    <circle cx="97.4" cy="53.6" r="5.7" stroke="#091f46" stroke-width="3.325"/>
    <path stroke="#091f46" stroke-width="3.286" d="M68.5 48.2c3-9.2 8-15.2 13.6-15.2 5.7 0 10.7 6.1 13.6 15.3"/>
    <path stroke="#091f46" stroke-width="3.297" d="M41.7 96.8c5.6-5.2 12.3-9.4 19.6-12.2M61 51.3c-2.8-1-5.6-2.3-8.2-3.7m39 6.5c-3.3.6-6.7.8-10.1.8-3.1 0-6.2-.2-9.1-.7m38-6.5c-2.5 1.3-5.1 2.5-7.7 3.5M72.3 81.6c3.4-.6 6.9-.9 10.5-.9 3 0 6 .2 9 .7m11.2 2.7c4.7 1.6 9 3.8 13.1 6.5"/>
    <path stroke="#091f46" stroke-width="3.286" d="M65.6 68c0-3 .2-6 .5-8.8m32-.1c.3 2.8.5 5.8.5 8.9m-32.5 8.8c-.3-2.8-.5-5.8-.5-8.8m33 0c0 3.1-.2 6.1-.5 8.9m-2.5 11.3c-3 9-7.9 14.9-13.5 14.9s-10.6-6-13.6-15.1"/>
  </g>
</svg>