<svg xmlns="http://www.w3.org/2000/svg" viewBox="0 0 150 150">
  <path d="M100.1 124.8H49.9c-2.3 0-4.4-1.2-5.5-3.2L19.3 78.2c-1.1-2-1.1-4.4 0-6.3l25.1-43.5c1.1-2 3.2-3.2 5.5-3.2h50.2c2.3 0 4.4 1.2 5.5 3.2l25.1 43.5c1.1 2 1.1 4.4 0 6.3l-25.1 43.5c-1.1 1.9-3.3 3.1-5.5 3.1z" fill="none" stroke="#fff" stroke-width="3" stroke-miterlimit="10"></path>
  <path d="M78.5 67.3c-2.1-2.1-1.7-5.8 1.6-9.1 1.6-1.6 3.5-2.5 5.7-3.2 2.1-.7 4.5-1.2 7.3-2.3M78.5 67.3c2.1 2.1 5.8 1.7 9.1-1.6 1.6-1.6 2.5-3.5 3.2-5.7.7-2.1 1.2-4.5 2.3-7.3M78.5 84.4c-2.1-2.1-1.7-5.8 1.6-9.1 1.6-1.6 3.5-2.5 5.7-3.2 2.1-.7 4.5-1.2 7.3-2.3M78.5 84.4c2.1 2.1 5.8 1.7 9.1-1.6 1.6-1.6 2.5-3.5 3.2-5.7.7-2.1 1.2-4.5 2.3-7.3M70.9 92.1s5.1-3.4 9.8-.2m-9.4-24.6c2.1-2.1 1.7-5.8-1.6-9.1-1.7-1.6-3.5-2.5-5.7-3.2-2.1-.7-4.5-1.2-7.3-2.3m14.6 14.6c-2.1 2.1-5.8 1.7-9.1-1.6-.9-.9-1.5-1.8-2-2.8m11.1 21.5c2.1-2.1 1.7-5.8-1.6-9.1-1.6-1.6-3.5-2.5-5.7-3.2-2.1-.7-4.5-1.2-7.3-2.3m14.6 14.6c-2.1 2.1-5.8 1.7-9.1-1.6-1.6-1.6-2.5-3.5-3.2-5.7-.7-2.1-1.2-4.5-2.3-7.3m19.4 21v19.4M80.4 51c-.2-2.2-.8-9.3-4.2-13-3.5 3.7-4 10.8-4.2 13" fill="none" stroke="#fff" stroke-width="3" stroke-linecap="round" stroke-linejoin="round" stroke-miterlimit="10"></path>
  <circle cx="57.4" cy="58.5" r="1.5" fill="#fff"></circle>
</svg>