<svg xmlns="http://www.w3.org/2000/svg" viewBox="0 0 150 150"> <g> <g> <g> <path fill="none" stroke="white" stroke-miterlimit="10" stroke-width="3" d="M100.1 124.8H49.9c-2.3 0-4.4-1.2-5.5-3.2L19.3 78.2c-1.1-2-1.1-4.4 0-6.3l25.1-43.5c1.1-2 3.2-3.2 5.5-3.2h50.2c2.3 0 4.4 1.2 5.5 3.2l25.1 43.5c1.1 2 1.1 4.4 0 6.3l-25.1 43.5c-1.1 1.9-3.3 3.1-5.5 3.1z"></path> </g> <g fill="none" stroke="white" stroke-linecap="round" stroke-miterlimit="10" stroke-width="3"> <path d="M55.1 78.5c-5.1-7.3-6-17.2-1.4-25.6 6.5-11.7 21.2-16 33-9.5s16 21.2 9.5 33c-1.9 3.5-4.7 6.5-8.1 8.7-1.4 2.7-2.1 5.6-2 8.6v11c0 .6-.5 1.1-1.1 1.1H67.3c-.6 0-1.1-.5-1.1-1.1V94"></path> <path d="M66.2 94h19.9"></path> <path d="M80.3 106.4v4.4c0 .2-.3.4-.6.4h-6.8c-.3 0-.6-.2-.6-.4v-4.4"></path> <path stroke-linejoin="round" d="M75 63.5s-3.3 11 2.7 19.2c10.5-9 7.3-27.1-1.7-32.4-1.1.8-2.1 1.6-3 2.6-9.4 9.4-9.4 24.7 0 34.2"></path> </g> </g> <path fill="white" d="M60.7 85c-1.1 0-2 .9-2 2s.9 2 2 2 2-.9 2-2-.9-2-2-2z"></path> </g> </svg>