<svg xmlns="http://www.w3.org/2000/svg" viewBox="0 0 150 150">
  <path fill="none" stroke="#8b8d09" stroke-linecap="round" stroke-miterlimit="10" stroke-width="3" d="M128.9 67.2l-.8 1.4c0 .1-3.6 6.1-10.2 10.3-11 7-23.6 5.1-37.1-5.6L79.2 72l1.2-1.6c5.9-7.9 21.4-20.5 38.1-11.4M71.3 15.2l1.4.8c.1 0 6 3.7 10 10.5 6.7 11.1 4.5 23.7-6.6 36.9L74.9 65l-1.6-1.2c-7.8-6-20-21.9-10.5-38.4M21.1 67l.8 1.4c0 .1 3.5 6.1 10.1 10.4 10.9 7 23.6 5.3 37.1-5.3l1.6-1.3-1.2-1.6c-5.8-8-21.2-20.7-38-11.7m42.9 66.6c-4.4 6-11.7 9.8-19.7 9.2-12.4-.8-21.8-11.5-21-23.9s11.5-21.8 23.9-21c10.7.7 17.6 9.2 20.8 19 2.9 9.1 9.2 16.7 20.9 16.7 0 0 1.9 0 3.3-.2M75.5 76.2c1.8 2 5.8 5 4.1 18.4"/>
  <ellipse fill="#8b8d09" cx="124.1" cy="62.7" rx="1.7" ry="1.7" transform="rotate(-88.581 124.058 62.676)"/>
  <ellipse fill="#8b8d09" cx="77.9" cy="121.3" rx="1.7" ry="1.7" transform="rotate(-88.581 77.891 121.26)"/>
  <ellipse fill="#8b8d09" cx="84.3" cy="109.5" rx="1.7" ry="1.7" transform="rotate(-88.581 84.308 109.51)"/>
  <ellipse fill="#8b8d09" cx="66.4" cy="19.8" rx="1.7" ry="1.7" transform="rotate(-88.581 66.391 19.843)"/>
  <ellipse fill="#8b8d09" cx="25.9" cy="62.5" rx="1.7" ry="1.7" transform="rotate(-88.581 25.892 62.51)"/>
  <path fill="none" stroke="#8b8d09" stroke-dasharray="0 6.235" stroke-linecap="round" stroke-miterlimit="10" stroke-width="3" d="M89.8 99.1c2.9-3.2 7-5.2 11.7-5.2 8.7 0 15.7 7 15.7 15.7 0 5.4-2.7 10.1-6.8 13"/>
</svg>