<svg xmlns="http://www.w3.org/2000/svg" viewBox="0 0 150 150">
  <path d="M100.1 124.8H49.9c-2.3 0-4.4-1.2-5.5-3.2L19.3 78.2c-1.1-2-1.1-4.4 0-6.3l25.1-43.5c1.1-2 3.2-3.2 5.5-3.2h50.2c2.3 0 4.4 1.2 5.5 3.2l25.1 43.5c1.1 2 1.1 4.4 0 6.3l-25.1 43.5c-1.1 1.9-3.3 3.1-5.5 3.1z" fill="none" stroke="#fff" stroke-width="3" stroke-miterlimit="10"></path>
  <path d="M100.8 58.4c3.2 3 5.2 7.2 5.2 11.9 0 7.6-5.4 14.3-12.9 15.9-.4 6.1-5.5 11-11.7 11-2.8 0-5.4-1-7.6-2.8-2.1 1.8-4.8 2.8-7.6 2.8-6.1 0-11.2-4.8-11.7-10.8C48.2 84 44 78 44 71.1c0-9 7.3-16.3 16.3-16.3.6 0 1.3 0 1.9.1.2-7.6 6.4-13.7 14-13.7 7.3 0 13.4 5.7 13.9 12.9M75 76.7v32.1" fill="none" stroke="#fff" stroke-width="3" stroke-linecap="round" stroke-linejoin="round" stroke-miterlimit="10"></path>
  <path d="M83.9 77c0 4.9-4 8.9-8.9 8.9s-8.9-4-8.9-8.9" fill="none" stroke="#fff" stroke-width="3" stroke-linecap="round" stroke-linejoin="round" stroke-miterlimit="10"></path>
  <circle cx="95.8" cy="56.1" r="1.5" fill="#fff"></circle>
</svg>