<svg xmlns="http://www.w3.org/2000/svg" viewBox="0 0 150 150"> <g> <path fill="none" stroke="white" stroke-miterlimit="10" stroke-width="3" d="M101 125.6H50.8c-2.3 0-4.4-1.2-5.5-3.2L20.2 78.9c-1.1-2-1.1-4.4 0-6.3l25.1-43.5c1.1-2 3.2-3.2 5.5-3.2H101c2.3 0 4.4 1.2 5.5 3.2l25.1 43.5c1.1 2 1.1 4.4 0 6.3l-25.1 43.5c-1.1 1.9-3.3 3.2-5.5 3.2z"></path> <path d="M103.6 65.4l-3.1-7.5-9.6 1.2c-.6-.6-1.1-1.2-1.8-1.8l1.4-9.5-7.5-3.1-6 7.6c-.8-.1-1.6 0-2.3 0l-6-7.6-7.5 3.1 1.3 9.5c-.7.6-1.3 1.2-1.9 1.8L51 58l-3 7.4" fill="none" stroke="white" stroke-width="3" stroke-linecap="round" stroke-linejoin="round" stroke-miterlimit="10"></path> <g> <path d="M86.1 69.3c-1.3-4.4-5.4-7.7-10.2-7.7-4.8 0-8.9 3.2-10.2 7.7" fill="none" stroke="white" stroke-width="3" stroke-linecap="round" stroke-linejoin="round" stroke-miterlimit="10"></path> </g> <g> <path d="M75.6 106.3c5.7-19.9-15.1-38.8-29.7-35.1-.3 1.6-.4 3.3-.4 5 0 16.7 13.5 30.1 30.1 30.1z" fill="none" stroke="white" stroke-width="3" stroke-linecap="round" stroke-linejoin="round" stroke-miterlimit="10"></path> <path d="M87.7 105.3c11.8-4 21.9-18.6 17.5-34.5-14.7 0-21.3 4.8-26.1 14.7" fill="none" stroke="white" stroke-width="3" stroke-linecap="round" stroke-linejoin="round" stroke-miterlimit="10"></path> </g> </g> <path fill="white" d="M82 103.9c-1.1 0-2 .9-2 2s.9 2 2 2 2-.9 2-2-.9-2-2-2z"></path> </svg>