<svg xmlns="http://www.w3.org/2000/svg" viewBox="0 0 150 150"> <g> <g> <g> <g> <path fill="none" stroke="white" stroke-miterlimit="10" stroke-width="3" d="M100.1 124.8H49.9c-2.3 0-4.4-1.2-5.5-3.2L19.3 78.2c-1.1-2-1.1-4.4 0-6.3l25.1-43.5c1.1-2 3.2-3.2 5.5-3.2h50.2c2.3 0 4.4 1.2 5.5 3.2l25.1 43.5c1.1 2 1.1 4.4 0 6.3l-25.1 43.5c-1.1 1.9-3.3 3.1-5.5 3.1z"></path> </g> <g> <g></g> <path fill="none" stroke="white" stroke-linecap="round" stroke-linejoin="round" stroke-miterlimit="10" stroke-width="3" d="M75 54.6V64"></path> <path fill="none" stroke="white" stroke-linecap="round" stroke-linejoin="round" stroke-miterlimit="10" stroke-width="3" d="M102.5 69.7V75c0 15.2-12.3 27.5-27.5 27.5S47.5 90.2 47.5 75c0-13 9-23.8 21.1-26.7"></path> <path fill="none" stroke="white" stroke-linecap="round" stroke-linejoin="round" stroke-miterlimit="10" stroke-width="3" d="M64.2 74.8C64.2 68.8 69 64 75 64s10.8 4.8 10.8 10.8v2.3H64.2v-2.3z"></path> <path fill="none" stroke="white" stroke-linecap="round" stroke-linejoin="round" stroke-miterlimit="10" stroke-width="3" d="M68.7 77.1v7.4"></path> <path fill="none" stroke="white" stroke-linecap="round" stroke-linejoin="round" stroke-miterlimit="10" stroke-width="3" d="M81.3 77.1v7.4"></path> </g> </g> <path fill="none" stroke="white" stroke-linecap="round" stroke-linejoin="round" stroke-miterlimit="10" stroke-width="3" d="M93.2 75.7l9.2-8.7"></path> <path fill="none" stroke="white" stroke-linecap="round" stroke-linejoin="round" stroke-miterlimit="10" stroke-width="3" d="M102.4 67l8.2 8.7"></path> </g> <path fill="white" d="M74.9 45.5c-1.1 0-2 .9-2 2s.9 2 2 2 2-.9 2-2-.9-2-2-2z"></path> </g> </svg>