<?xml version="1.0" encoding="utf-8"?>
<!-- Generator: Adobe Illustrator 27.3.1, SVG Export Plug-In . SVG Version: 6.00 Build 0)  -->
<svg version="1.1" id="Layer_1" xmlns="http://www.w3.org/2000/svg" xmlns:xlink="http://www.w3.org/1999/xlink" x="0px" y="0px"
	 viewBox="0 0 331 102" style="enable-background:new 0 0 331 102;" xml:space="preserve">
<style type="text/css">
	.st0{fill:none;stroke:#F8981D;}
	.st1{fill:none;stroke:#F8981D;stroke-linecap:round;}
	.st2{filter:url(#Adobe_OpacityMaskFilter);}
	.st3{fill-rule:evenodd;clip-rule:evenodd;fill:#FFFFFF;}
	.st4{mask:url(#b_00000052819119534545539250000009982761953671454862_);fill-rule:evenodd;clip-rule:evenodd;fill:#E7871E;}
	.st5{filter:url(#Adobe_OpacityMaskFilter_00000069385990275056662210000000310999591106410891_);}
	.st6{mask:url(#b_00000087377950748004727780000000758740349275906994_);fill:none;stroke:#F8981D;}
	.st7{filter:url(#Adobe_OpacityMaskFilter_00000120526400421467234970000002882875928737322138_);}
	.st8{mask:url(#b_00000031915114034508404080000014133751331286202815_);fill-rule:evenodd;clip-rule:evenodd;fill:#E7871E;}
	.st9{filter:url(#Adobe_OpacityMaskFilter_00000047042086508185701890000005888636282226205066_);}
	.st10{mask:url(#b_00000170264196047720781530000016587742259303135116_);fill:none;stroke:#F8981D;}
	.st11{filter:url(#Adobe_OpacityMaskFilter_00000140707114297547457180000012920776085757840261_);}
	.st12{mask:url(#b_00000175320877020150332250000013871191034458561981_);fill-rule:evenodd;clip-rule:evenodd;fill:#E7871E;}
	.st13{filter:url(#Adobe_OpacityMaskFilter_00000152252771650683640800000011073816676356883331_);}
	.st14{mask:url(#b_00000090982671082431019670000013353395832975500730_);fill:none;stroke:#F8981D;}
</style>
<g transform="translate(1 1)">
	<path class="st0" d="M64,58.3V27.8l3.6-7.5L67.1,18c0-0.2-0.2-0.4-0.5-0.4h-3.7v-5.1H65c0.2,0,0.4-0.2,0.4-0.4v-0.7h-6.8v0.7
		c0,0.2,0.2,0.4,0.4,0.4h1.9v5.1h-4V5.9c0-0.2,0-0.8-0.8-0.8c-0.9,0-0.8,0.7-0.8,0.8v11.7H52V9.4c0-0.2-0.1-0.3-0.3-0.3h-1.9
		c-0.2,0-0.3,0.1-0.3,0.3v8.2h-4.4l-1.1-3.2c0-0.1-0.2-0.2-0.3-0.2h-0.4v-14h-2.8v14h-0.4c-0.1,0-0.3,0.1-0.3,0.2l-1,3.2h-2.8
		c-0.3,0-0.5,0.2-0.5,0.5l0,0v9.7h0.1v27.8 M31.9,42.1L30.1,20l-0.3-3.1c0-0.3-0.2-0.4-0.5-0.4h-1.6v-4.2c0-0.2-0.2-0.3-0.3-0.3
		c0,0,0,0,0,0h-2.6c-0.2,0-0.3,0.2-0.3,0.3c0,0,0,0,0,0v4.2h-1.3v-1.3c0-0.2-0.2-0.3-0.3-0.3h-2c-0.2,0-0.3,0.2-0.3,0.3v1.3h-1.2
		c-0.3,0-0.5,0.2-0.5,0.5v0v33"/>
	<path class="st0" d="M35.7,42.1h-6.1v7.7H15.2c-0.2,0-0.3,0.1-0.3,0.3v5.5"/>
	<path class="st1" d="M295.2,55.4c-1.1,0-2-0.9-2-2c0-1.1,0.9-2,2-2s2,0.9,2,2C297.1,54.5,296.3,55.4,295.2,55.4z M283.2,57.4
		c-0.4,0.7-1.2,1.1-2,1.1h-8.1l-0.2-2.7h8.3c1.3,0,1.9-1.1,1.9-2.4V52h3.6L283.2,57.4L283.2,57.4z M249.2,58.5l-0.3-2.7h20l-0.3,2.7
		H249.2L249.2,58.5z M225.2,58.5l-0.3-2.7h20l-0.3,2.7H225.2z M201.2,58.5l-0.3-2.7h20l-0.3,2.7H201.2z M177.2,58.5l-0.3-2.7h20
		l-0.3,2.7H177.2L177.2,58.5z M165.8,58.5v-2.6c0,0,0-0.1,0.1-0.1h7.2l-0.3,2.7C172.8,58.5,165.8,58.5,165.8,58.5z M161,58.5v-3.2
		c0-0.5-0.4-0.9-0.9-0.9h-7.2l-0.2-2.4h20.7l-0.2,2.4h-7.8c-0.5,0-0.9,0.4-0.9,0.9v3.2H161z M153.2,58.5l-0.3-2.7h6.6
		c0,0,0.1,0,0.1,0.1v2.6C159.6,58.5,153.2,58.5,153.2,58.5z M129.2,58.5l-0.3-2.7h20l-0.3,2.7H129.2L129.2,58.5z M105.3,58.5
		l-0.3-2.7h20l-0.3,2.7H105.3z M81.3,58.5L81,55.8h20l-0.3,2.7H81.3L81.3,58.5z M68.5,54.4c-0.6,0-1-0.5-1-1V52h9l-0.2,2.4H68.5
		L68.5,54.4z M101.4,52l-0.2,2.4H80.9L80.7,52C80.7,52,101.4,52,101.4,52z M125.4,52l-0.2,2.4h-20.3l-0.2-2.4H125.4L125.4,52z
		 M149.4,52l-0.2,2.4h-20.3l-0.2-2.4H149.4L149.4,52z M197.3,52l-0.2,2.4h-20.3l-0.2-2.4H197.3z M221.3,52l-0.2,2.4h-20.3l-0.2-2.4
		H221.3z M245.3,52l-0.2,2.4h-20.3l-0.2-2.4H245.3z M269.3,52l-0.2,2.4h-20.3l-0.2-2.4H269.3z M281.7,52v1.4c0,0.6-0.5,1-1,1h-7.9
		l-0.2-2.4H281.7z M327.6,87.7c0.9-1.9,1.3-4,1.3-6.1c0-4.5-3.6-8.1-8.1-8.1c-1.9,0-3.4-1.2-4.1-2.8c-0.5-1.2-0.4-2.7,0.3-3.8
		l10.3-18.1c0.2-0.4,0.1-1-0.3-1.2c-0.1-0.1-0.3-0.1-0.4-0.1h-37.1c-0.8,0-1.5,0.4-2,1.1l-0.7,1.1H64V52h2.1v1.4
		c0,1.3,1,2.4,1.9,2.4h8.1l-0.3,2.7H59.3l-2.5-2.3c-0.2-0.2-0.4-0.3-0.7-0.3H0.7c-0.2,0-0.4,0.2-0.4,0.4v15.3c0,2.5,1.7,4.7,4.2,5.3
		l3.8,0.9v1.7h-6c-0.4,0-0.7,0.3-0.7,0.7v16.1c0,0.4,0.3,0.7,0.7,0.7h8c0.7,0,1.4-0.6,1.4-1.3l1.2-16.8L18,80
		c3.7,0.8,6.3,4.1,6.2,7.9c0,0.8-0.6,1.4-1.4,1.4c-1.5,0-2.9,0.9-3.4,2.3h-1.1v-1.3c0-0.1,0-0.2,0-0.3l-1-3c-0.1-0.4-0.5-0.7-1-0.7
		c-0.3,0-0.5,0.2-0.5,0.5v4.8c-0.7,0-1.3,0.6-1.3,1.3c0,0.7,0.6,1.3,1.3,1.3v4.8c0,0.3,0.2,0.5,0.5,0.5c0.4,0,0.8-0.3,1-0.7l1-3
		c0-0.1,0-0.2,0-0.3v-1.3h1.1c0.5,1.4,1.9,2.3,3.4,2.3h291c4.3,0,8.3-1.9,11-4.8C324.9,91.7,327.6,87.7,327.6,87.7z"/>
	<path class="st0" d="M312.5,47.6l-1.2-4.5c-0.1-0.4-0.5-0.7-0.9-0.7h-0.2c-0.8-1.3-2.2-2.2-3.9-2.2s-3.1,0.9-3.9,2.2h-0.2
		c-0.4,0-0.8,0.3-0.9,0.7l-1.2,4.5H312.5L312.5,47.6z M66.6,22.6H46c-0.2,0-0.3,0.1-0.4,0.3l-1.2,2.4c0,0.1,0,0.1,0,0.2
		c0,0,0,0,0.1,0h20.8 M63.2,22.6l-1.4,2.8 M59.7,22.6l-1.4,2.8 M56.2,22.6l-1.4,2.8 M49.2,22.6l-1.4,2.8 M52.7,22.6l-1.4,2.8"/>
	<defs>
		<filter id="Adobe_OpacityMaskFilter" filterUnits="userSpaceOnUse" x="40.8" y="34.1" width="25" height="1.6">
			<feColorMatrix  type="matrix" values="1 0 0 0 0  0 1 0 0 0  0 0 1 0 0  0 0 0 1 0"/>
		</filter>
	</defs>
	
		<mask maskUnits="userSpaceOnUse" x="40.8" y="34.1" width="25" height="1.6" id="b_00000052819119534545539250000009982761953671454862_">
		<g class="st2">
			<path id="a_00000177464912338322926650000008859520374877189270_" class="st3" d="M0,99.9h329.2V0H0V99.9z"/>
		</g>
	</mask>
	<path class="st4" d="M40.8,35.7h25v-1.6h-25V35.7z"/>
	<defs>
		
			<filter id="Adobe_OpacityMaskFilter_00000108302035901934696260000005781174816279127434_" filterUnits="userSpaceOnUse" x="40.3" y="33.6" width="26" height="2.6">
			<feColorMatrix  type="matrix" values="1 0 0 0 0  0 1 0 0 0  0 0 1 0 0  0 0 0 1 0"/>
		</filter>
	</defs>
	
		<mask maskUnits="userSpaceOnUse" x="40.3" y="33.6" width="26" height="2.6" id="b_00000087377950748004727780000000758740349275906994_">
		<g style="filter:url(#Adobe_OpacityMaskFilter_00000108302035901934696260000005781174816279127434_);">
			<path id="a_00000095321320660428274260000016782620476043134851_" class="st3" d="M0,99.9h329.2V0H0V99.9z"/>
		</g>
	</mask>
	<path class="st6" d="M40.8,35.7h25v-1.6h-25V35.7z"/>
	<defs>
		
			<filter id="Adobe_OpacityMaskFilter_00000122680139874179678080000015558268803098075068_" filterUnits="userSpaceOnUse" x="40.8" y="39.2" width="25" height="1.6">
			<feColorMatrix  type="matrix" values="1 0 0 0 0  0 1 0 0 0  0 0 1 0 0  0 0 0 1 0"/>
		</filter>
	</defs>
	
		<mask maskUnits="userSpaceOnUse" x="40.8" y="39.2" width="25" height="1.6" id="b_00000031915114034508404080000014133751331286202815_">
		<g style="filter:url(#Adobe_OpacityMaskFilter_00000122680139874179678080000015558268803098075068_);">
			<path id="a_00000049209458744773193410000001468076558807081626_" class="st3" d="M0,99.9h329.2V0H0V99.9z"/>
		</g>
	</mask>
	<path class="st8" d="M40.8,40.8h25v-1.6h-25V40.8z"/>
	<defs>
		
			<filter id="Adobe_OpacityMaskFilter_00000151534449303424590600000012803068506007094918_" filterUnits="userSpaceOnUse" x="40.3" y="38.7" width="26" height="2.6">
			<feColorMatrix  type="matrix" values="1 0 0 0 0  0 1 0 0 0  0 0 1 0 0  0 0 0 1 0"/>
		</filter>
	</defs>
	
		<mask maskUnits="userSpaceOnUse" x="40.3" y="38.7" width="26" height="2.6" id="b_00000170264196047720781530000016587742259303135116_">
		<g style="filter:url(#Adobe_OpacityMaskFilter_00000151534449303424590600000012803068506007094918_);">
			<path id="a_00000026852232917663923920000013187790196718745265_" class="st3" d="M0,99.9h329.2V0H0V99.9z"/>
		</g>
	</mask>
	<path class="st10" d="M40.8,40.8h25v-1.6h-25V40.8z"/>
	<defs>
		
			<filter id="Adobe_OpacityMaskFilter_00000178172215724029889560000005438822947571511971_" filterUnits="userSpaceOnUse" x="40.8" y="44.2" width="25" height="1.6">
			<feColorMatrix  type="matrix" values="1 0 0 0 0  0 1 0 0 0  0 0 1 0 0  0 0 0 1 0"/>
		</filter>
	</defs>
	
		<mask maskUnits="userSpaceOnUse" x="40.8" y="44.2" width="25" height="1.6" id="b_00000175320877020150332250000013871191034458561981_">
		<g style="filter:url(#Adobe_OpacityMaskFilter_00000178172215724029889560000005438822947571511971_);">
			<path id="a_00000047748524707638142990000008333718910708410281_" class="st3" d="M0,99.9h329.2V0H0V99.9z"/>
		</g>
	</mask>
	<path class="st12" d="M40.8,45.8h25v-1.6h-25V45.8z"/>
	<defs>
		
			<filter id="Adobe_OpacityMaskFilter_00000000913180341183480570000009069133839252775076_" filterUnits="userSpaceOnUse" x="40.3" y="43.7" width="26" height="2.6">
			<feColorMatrix  type="matrix" values="1 0 0 0 0  0 1 0 0 0  0 0 1 0 0  0 0 0 1 0"/>
		</filter>
	</defs>
	
		<mask maskUnits="userSpaceOnUse" x="40.3" y="43.7" width="26" height="2.6" id="b_00000090982671082431019670000013353395832975500730_">
		<g style="filter:url(#Adobe_OpacityMaskFilter_00000000913180341183480570000009069133839252775076_);">
			<path id="a_00000065060981975325389580000017236249922668133805_" class="st3" d="M0,99.9h329.2V0H0V99.9z"/>
		</g>
	</mask>
	<path class="st14" d="M40.8,45.8h25v-1.6h-25V45.8z"/>
</g>
</svg>
