<?xml version="1.0" encoding="UTF-8"?>
<svg id="Layer_1" data-name="Layer 1" xmlns="http://www.w3.org/2000/svg" viewBox="0 0 200 173.7">
  <defs>
    <style>
      .cls-1 {
        fill: #333;
      }

      .cls-2 {
        stroke: #f49824;
        stroke-width: 2.4px;
      }

      .cls-2, .cls-3 {
        fill: none;
      }

      .cls-3 {
        stroke: #333;
        stroke-linecap: round;
        stroke-linejoin: round;
        stroke-width: 3px;
      }
    </style>
  </defs>
  <g>
    <line class="cls-3" x1="100" y1="38.15" x2="100" y2="27.65"/>
    <rect class="cls-3" x="73.97" y="38.15" width="52.06" height="17.27" rx="5.06" ry="5.06"/>
    <path class="cls-3" d="m135.45,146.05h-35.44s0,0,0,0h-32.26c-1.92,0-3.63-1.18-4.31-2.97l-16.04-42.17c-.83-2.17.09-4.62,2.15-5.71l48.29-25.85c.68-.36,1.42-.55,2.17-.55.75,0,1.49.18,2.17.55l48.29,25.85c2.05,1.09,2.97,3.54,2.15,5.71l-10.76,28.28"/>
    <line class="cls-3" x1="52.75" y1="111.13" x2="81.64" y2="111.13"/>
    <line class="cls-3" x1="57.22" y1="123.19" x2="71.84" y2="123.19"/>
    <path class="cls-3" d="m100,68.8c.75,0,1.49.18,2.17.55l36.6,19.59h0v-28.9c0-2.55-2.07-4.61-4.61-4.61h-68.31c-2.55,0-4.61,2.07-4.61,4.61v28.9h0s36.6-19.59,36.6-19.59c.68-.36,1.42-.55,2.17-.55Z"/>
    <circle class="cls-1" cx="138.69" cy="137.62" r="2.25"/>
  </g>
  <g id="Design">
    <g id="Our-vision-_-culture" data-name="Our-vision-&amp;amp;-culture">
      <g id="Stroke-2">
        <polygon id="Stroke-1" class="cls-2" points="149.25 1.63 50.75 1.63 1.5 86.85 50.75 172.07 149.25 172.07 198.5 86.85 149.25 1.63"/>
      </g>
    </g>
  </g>
</svg>