<svg xmlns="http://www.w3.org/2000/svg" id="Layer_1" viewBox="0 0 150 150"> <g> <g> <g> <g> <path fill="none" stroke="white" stroke-miterlimit="10" stroke-width="3" d="M100.1 124.8H49.9c-2.3 0-4.4-1.2-5.5-3.2L19.3 78.2c-1.1-2-1.1-4.4 0-6.3l25.1-43.5c1.1-2 3.2-3.2 5.5-3.2h50.2c2.3 0 4.4 1.2 5.5 3.2l25.1 43.5c1.1 2 1.1 4.4 0 6.3l-25.1 43.5c-1.1 1.9-3.3 3.1-5.5 3.1z"></path> </g> <g> <path d="M76.1 101.1c3.9 1.7 8.6.9 11.8-2.3l12-12-15.4-15.4" fill="none" stroke="white" stroke-width="3" stroke-linecap="round" stroke-miterlimit="10" stroke-linejoin="round"></path> <path d="M74.8 61.7c-4.2-4.2-11-4.2-15.2 0l-2.2 2.2-8.7-8.7L39 65l17.7 17.7" fill="none" stroke="white" stroke-width="3" stroke-linecap="round" stroke-miterlimit="10" stroke-linejoin="round"></path> <path d="M78.8 97.8l-1.5 1.5c-4.2 4.2-11 4.2-15.2 0l-12-12 1.5-1.5c4.2-4.2 11-4.2 15.2 0l12 12z" fill="none" stroke="white" stroke-width="3" stroke-linecap="round" stroke-miterlimit="10" stroke-linejoin="round"></path> <path d="M106.6 60.9l-5.3-5.3-8.7 8.7-2.2-2.2c-4.2-4.2-11-4.2-15.2 0l-.1.1-12 12 1.5 1.5c4.2 4.2 11 4.2 15.2 0l4.5-4.5 10.4 10.4L107.3 69" fill="none" stroke="white" stroke-width="3" stroke-linecap="round" stroke-miterlimit="10" stroke-linejoin="round"></path> </g> </g> <path d="M82.3 91.4l6.3 6.5" fill="none" stroke="white" stroke-width="3" stroke-linecap="round" stroke-miterlimit="10"></path> <path d="M86.3 84.7l7.4 7.5" fill="none" stroke="white" stroke-width="3" stroke-linecap="round" stroke-miterlimit="10"></path> </g> <path fill="white" d="M110.2 62.7c-1.1 0-2 .9-2 2s.9 2 2 2 2-.9 2-2-.9-2-2-2z"></path> </g> </svg>