<?xml version="1.0" encoding="UTF-8"?>
<svg id="Layer_1" data-name="Layer 1" xmlns="http://www.w3.org/2000/svg" viewBox="0 0 200 173.7">
  <defs>
    <style>
      .cls-1 {
        fill: #fff;
      }

      .cls-2 {
        fill: #333;
      }

      .cls-3 {
        fill: none;
        stroke: #f49824;
        stroke-width: 2.4px;
      }
    </style>
  </defs>
  <g>
    <g>
      <g>
        <path class="cls-1" d="m71.2,140.69c-.83-.8-1.59-1.68-2.28-2.61h0c-2.62-3.53-4.16-7.9-4.16-12.63,0-11.72,9.5-21.23,21.23-21.23h18.26c2.34,0,4.25,1.9,4.25,4.25s-1.9,4.25-4.25,4.25h-16.01s36,0,36,0c2.34,0,4.25,1.9,4.25,4.25s-1.9,4.25-4.25,4.25h-23.12s29.88,0,29.88,0c2.34,0,4.25,1.9,4.25,4.25,0,2.34-1.9,4.25-4.25,4.25h-30.22s23.51,0,23.51,0c2.34,0,4.25,1.9,4.25,4.25s-1.9,4.25-4.25,4.25h-26.63s16.98,0,16.98,0c2.34,0,4.25,1.9,4.25,4.25,0,2.34-1.9,4.25-4.25,4.25h-28.65c-2.25,0-4.43-.35-6.46-1"/>
        <path class="cls-2" d="m114.63,147.91h-28.65c-2.33,0-4.63-.36-6.84-1.06-.64-.21-1-.89-.79-1.53.21-.64.89-1,1.53-.79,1.96.63,4.01.94,6.09.94h28.65c1.67,0,3.02-1.36,3.02-3.02s-1.36-3.02-3.02-3.02h-16.98c-.67,0-1.22-.55-1.22-1.22s.55-1.22,1.22-1.22h26.63c1.67,0,3.02-1.36,3.02-3.02s-1.36-3.02-3.02-3.02h-23.51c-.67,0-1.22-.55-1.22-1.22s.55-1.22,1.22-1.22h30.22c1.67,0,3.02-1.36,3.02-3.02s-1.36-3.02-3.02-3.02h-29.87c-.67,0-1.22-.55-1.22-1.22s.55-1.22,1.22-1.22h23.12c1.67,0,3.02-1.36,3.02-3.02s-1.36-3.02-3.02-3.02h-36c-.67,0-1.22-.55-1.22-1.22s.55-1.22,1.22-1.22h16.01c1.67,0,3.02-1.36,3.02-3.02s-1.36-3.02-3.02-3.02h-18.26c-11.03,0-20.01,8.98-20.01,20.01,0,4.32,1.36,8.44,3.92,11.9,0,0,0,0,0,0,.64.87,1.37,1.69,2.15,2.45.48.47.5,1.24.03,1.73-.47.48-1.24.5-1.73.03-.87-.85-1.69-1.78-2.41-2.75h0c-2.88-3.89-4.4-8.5-4.4-13.35,0-12.38,10.07-22.45,22.45-22.45h18.26c3.01,0,5.47,2.45,5.47,5.47,0,1.12-.34,2.16-.92,3.02h15.44c3.01,0,5.47,2.45,5.47,5.47,0,1.12-.34,2.16-.92,3.02h2.21c3.01,0,5.47,2.45,5.47,5.47s-2.45,5.47-5.47,5.47h-2.16c.58.87.92,1.91.92,3.02,0,3.01-2.45,5.47-5.47,5.47h-5.09c.58.87.92,1.91.92,3.02,0,3.01-2.45,5.47-5.47,5.47Z"/>
      </g>
      <circle class="cls-2" cx="75.07" cy="143.67" r="1.22"/>
    </g>
    <g>
      <g>
        <path class="cls-1" d="m46.16,58.05c.8-.83,1.68-1.59,2.61-2.28h0c3.53-2.61,7.9-4.16,12.63-4.16,11.72,0,21.23,9.5,21.23,21.23v18.26c0,2.34-1.9,4.25-4.25,4.25s-4.25-1.9-4.25-4.25v-16.01s0,36,0,36c0,2.34-1.9,4.25-4.25,4.25-2.34,0-4.25-1.9-4.25-4.25v-23.12s0,29.88,0,29.88c0,2.34-1.9,4.25-4.25,4.25-2.34,0-4.25-1.9-4.25-4.25v-30.22s0,23.51,0,23.51c0,2.34-1.9,4.25-4.25,4.25s-4.25-1.9-4.25-4.25v-26.63s0,16.98,0,16.98c0,2.34-1.9,4.25-4.25,4.25-2.34,0-4.25-1.9-4.25-4.25v-28.65c0-2.25.35-4.43,1-6.46"/>
        <path class="cls-2" d="m61.39,123.31c-3.01,0-5.47-2.45-5.47-5.47v-2.16c-.87.58-1.91.92-3.02.92-3.01,0-5.47-2.45-5.47-5.47v-5.09c-.87.58-1.91.92-3.02.92-3.01,0-5.47-2.45-5.47-5.47v-28.65c0-2.33.36-4.63,1.06-6.84.2-.64.89-1,1.53-.79.64.21,1,.89.79,1.53-.63,1.96-.94,4.01-.94,6.09v28.65c0,1.67,1.36,3.02,3.02,3.02s3.02-1.36,3.02-3.02v-16.98c0-.67.55-1.22,1.22-1.22s1.22.55,1.22,1.22v26.63c0,1.67,1.36,3.02,3.02,3.02s3.02-1.36,3.02-3.02v-23.51c0-.67.55-1.22,1.22-1.22s1.22.55,1.22,1.22v30.22c0,1.67,1.36,3.02,3.02,3.02s3.02-1.36,3.02-3.02v-29.87c0-.67.55-1.22,1.22-1.22s1.22.55,1.22,1.22v23.12c0,1.67,1.36,3.02,3.02,3.02s3.02-1.36,3.02-3.02v-36c0-.67.55-1.22,1.22-1.22s1.22.55,1.22,1.22v16.01c0,1.67,1.36,3.02,3.02,3.02s3.02-1.36,3.02-3.02v-18.26c0-11.03-8.98-20.01-20.01-20.01-4.32,0-8.44,1.36-11.9,3.92,0,0,0,0,0,0-.87.64-1.69,1.36-2.45,2.14-.47.48-1.24.49-1.73.02s-.49-1.24-.02-1.73c.85-.88,1.78-1.69,2.75-2.41,0,0,0,0,0,0,3.88-2.88,8.5-4.4,13.35-4.4,12.38,0,22.45,10.07,22.45,22.45v18.26c0,3.01-2.45,5.47-5.47,5.47-1.12,0-2.16-.34-3.02-.92v15.44c0,3.01-2.45,5.47-5.47,5.47-1.12,0-2.16-.34-3.02-.91v2.21c0,3.01-2.45,5.47-5.47,5.47Z"/>
      </g>
      <circle class="cls-2" cx="43.18" cy="61.92" r="1.22"/>
    </g>
    <g>
      <g>
        <path class="cls-1" d="m128.8,33.01c.83.8,1.59,1.68,2.28,2.61h0c2.62,3.53,4.16,7.9,4.16,12.63,0,11.72-9.5,21.23-21.23,21.23h-18.26c-2.34,0-4.25-1.9-4.25-4.25s1.9-4.25,4.25-4.25h16.01s-36,0-36,0c-2.34,0-4.25-1.9-4.25-4.25,0-2.34,1.9-4.25,4.25-4.25h23.12s-29.88,0-29.88,0c-2.34,0-4.25-1.9-4.25-4.25,0-2.34,1.9-4.25,4.25-4.25h30.22s-23.51,0-23.51,0c-2.34,0-4.25-1.9-4.25-4.25s1.9-4.25,4.25-4.25h26.63s-16.98,0-16.98,0c-2.34,0-4.25-1.9-4.25-4.25,0-2.34,1.9-4.25,4.25-4.25h28.65c2.25,0,4.43.35,6.46,1"/>
        <path class="cls-2" d="m114.01,70.69h-18.26c-3.01,0-5.47-2.45-5.47-5.47,0-1.12.34-2.16.91-3.02h-15.44c-3.01,0-5.47-2.45-5.47-5.47,0-1.12.34-2.16.91-3.02h-2.21c-3.01,0-5.47-2.45-5.47-5.47s2.45-5.47,5.47-5.47h2.16c-.58-.87-.91-1.91-.91-3.02,0-3.01,2.45-5.47,5.47-5.47h5.09c-.58-.87-.91-1.91-.91-3.02,0-3.01,2.45-5.47,5.47-5.47h28.65c2.33,0,4.63.36,6.84,1.06.64.2,1,.89.79,1.53-.21.64-.89,1-1.53.79-1.96-.63-4.01-.94-6.09-.94h-28.65c-1.67,0-3.02,1.36-3.02,3.02s1.36,3.02,3.02,3.02h16.98c.67,0,1.22.55,1.22,1.22s-.55,1.22-1.22,1.22h-26.63c-1.67,0-3.02,1.36-3.02,3.02s1.36,3.02,3.02,3.02h23.51c.67,0,1.22.55,1.22,1.22s-.55,1.22-1.22,1.22h-30.22c-1.67,0-3.02,1.36-3.02,3.02s1.36,3.02,3.02,3.02h29.88c.67,0,1.22.55,1.22,1.22s-.55,1.22-1.22,1.22h-23.12c-1.67,0-3.02,1.36-3.02,3.02s1.36,3.02,3.02,3.02h36c.67,0,1.22.55,1.22,1.22s-.55,1.22-1.22,1.22h-16.01c-1.67,0-3.02,1.36-3.02,3.02s1.36,3.02,3.02,3.02h18.26c11.03,0,20.01-8.98,20.01-20.01,0-4.31-1.35-8.42-3.91-11.88,0,0-.01-.01-.02-.02-.64-.87-1.37-1.7-2.15-2.46-.48-.47-.5-1.24-.03-1.73.47-.48,1.25-.49,1.73-.03.87.84,1.67,1.76,2.39,2.73,0,0,.01.01.02.02,2.88,3.89,4.4,8.5,4.4,13.35,0,12.38-10.07,22.45-22.45,22.45Z"/>
      </g>
      <circle class="cls-2" cx="124.93" cy="30.03" r="1.22"/>
    </g>
    <g>
      <g>
        <path class="cls-1" d="m153.84,115.65c-.8.83-1.68,1.59-2.61,2.28h0c-3.53,2.61-7.9,4.16-12.63,4.16-11.72,0-21.23-9.5-21.23-21.23v-18.26c0-2.34,1.9-4.25,4.25-4.25s4.25,1.9,4.25,4.25v16.01s0-36,0-36c0-2.34,1.9-4.25,4.25-4.25s4.25,1.9,4.25,4.25v23.12s0-29.88,0-29.88c0-2.34,1.9-4.25,4.25-4.25,2.34,0,4.25,1.9,4.25,4.25v30.22s0-23.51,0-23.51c0-2.34,1.9-4.25,4.25-4.25s4.25,1.9,4.25,4.25v26.63s0-16.98,0-16.98c0-2.34,1.9-4.25,4.25-4.25,2.34,0,4.25,1.9,4.25,4.25v28.65c0,2.25-.35,4.43-1,6.46"/>
        <path class="cls-2" d="m138.61,123.31c-12.38,0-22.45-10.07-22.45-22.45v-18.26c0-3.01,2.45-5.47,5.47-5.47,1.12,0,2.16.34,3.02.91v-15.44c0-3.01,2.45-5.47,5.47-5.47,1.12,0,2.16.34,3.02.91v-2.21c0-3.01,2.45-5.47,5.47-5.47s5.47,2.45,5.47,5.47v2.16c.87-.58,1.91-.91,3.02-.91,3.01,0,5.47,2.45,5.47,5.47v5.09c.87-.58,1.91-.91,3.02-.91,3.01,0,5.47,2.45,5.47,5.47v28.65c0,2.33-.36,4.63-1.06,6.84-.2.64-.89,1-1.53.79-.64-.21-1-.89-.79-1.53.63-1.96.94-4.01.94-6.09v-28.65c0-1.67-1.36-3.02-3.02-3.02s-3.02,1.36-3.02,3.02v16.98c0,.67-.55,1.22-1.22,1.22s-1.22-.55-1.22-1.22v-26.63c0-1.67-1.36-3.02-3.02-3.02s-3.02,1.36-3.02,3.02v23.51c0,.67-.55,1.22-1.22,1.22s-1.22-.55-1.22-1.22v-30.22c0-1.67-1.36-3.02-3.02-3.02s-3.02,1.36-3.02,3.02v29.88c0,.67-.55,1.22-1.22,1.22s-1.22-.55-1.22-1.22v-23.12c0-1.67-1.36-3.02-3.02-3.02s-3.02,1.36-3.02,3.02v36c0,.67-.55,1.22-1.22,1.22s-1.22-.55-1.22-1.22v-16.01c0-1.67-1.36-3.02-3.02-3.02s-3.02,1.36-3.02,3.02v18.26c0,11.03,8.98,20.01,20.01,20.01,4.31,0,8.42-1.35,11.88-3.91,0,0,.01-.01.02-.02.87-.65,1.7-1.37,2.46-2.15.47-.48,1.24-.5,1.73-.03.48.47.5,1.24.03,1.73-.84.87-1.76,1.67-2.73,2.39,0,0-.02.01-.02.02-3.89,2.88-8.5,4.4-13.35,4.4Z"/>
      </g>
      <circle class="cls-2" cx="156.82" cy="111.78" r="1.22"/>
    </g>
  </g>
  <g id="Design">
    <g id="Our-vision-_-culture" data-name="Our-vision-&amp;amp;-culture">
      <g id="Stroke-2">
        <polygon id="Stroke-1" class="cls-3" points="149.25 1.63 50.75 1.63 1.5 86.85 50.75 172.07 149.25 172.07 198.5 86.85 149.25 1.63"/>
      </g>
    </g>
  </g>
</svg>