<svg xmlns="http://www.w3.org/2000/svg" viewBox="0 0 150 150"> <path fill="none" stroke="white" stroke-miterlimit="10" stroke-width="3" d="M100.8 125.5H50.6c-2.3 0-4.4-1.2-5.5-3.2l-25-43.4c-1.1-2-1.1-4.4 0-6.3l25.1-43.5c1.1-2 3.2-3.2 5.5-3.2h50.2c2.3 0 4.4 1.2 5.5 3.2l25.1 43.5c1.1 2 1.1 4.4 0 6.3l-25.1 43.5c-1.2 1.9-3.3 3.1-5.6 3.1z"></path> <g> <g> <path fill="none" stroke="white" stroke-linecap="round" stroke-miterlimit="10" stroke-width="3" d="M69.1 62.4v-4.6c0-.6.6-1.2 1.2-1.2h12.4c.6 0 1 .5 1 1.2v4.6m3 0H66.3m20.4 0V86c0 1.1-.9 2.1-2 2.1H68.3c-1.1 0-2-.9-2-2.1V62.4m6.5 6.1V82m7.3-13.5V82"></path> </g> </g> <g> <path d="M92.5 101.8c-4.8 2.9-10.5 4.6-16.5 4.6-17.6 0-31.9-14.3-31.9-31.9S58.4 42.7 76 42.7s31.9 14.3 31.9 31.9c0 4.7-1 9.2-2.8 13.2" fill="none" stroke="white" stroke-width="2.9295" stroke-linecap="round" stroke-linejoin="round" stroke-miterlimit="10"></path> <g> <path d="M82.5 95.1l12.2 6" fill="none" stroke="white" stroke-width="2.9295" stroke-linecap="round" stroke-linejoin="round" stroke-miterlimit="10"></path> <path d="M94.7 101.1l-6 12.2" fill="none" stroke="white" stroke-width="2.9295" stroke-linecap="round" stroke-linejoin="round" stroke-miterlimit="10"></path> </g> </g> <path fill="white" d="M100.7 93.2c-1.1 0-2 .9-2 2s.9 2 2 2 2-.9 2-2-.9-2-2-2z"></path> </svg>