<svg xmlns="http://www.w3.org/2000/svg" viewBox="0 0 150 150">
                                <path d="M100.1 124.8H49.9c-2.3 0-4.4-1.2-5.5-3.2L19.3 78.2c-1.1-2-1.1-4.4 0-6.3l25.1-43.5c1.1-2 3.2-3.2 5.5-3.2h50.2c2.3 0 4.4 1.2 5.5 3.2l25.1 43.5c1.1 2 1.1 4.4 0 6.3l-25.1 43.5c-1.1 1.9-3.3 3.1-5.5 3.1z" fill="none" stroke="#fff" stroke-width="3" stroke-miterlimit="10"></path>
                                <path fill="none" stroke="#fff" stroke-width="3" stroke-linecap="round" stroke-linejoin="round" stroke-miterlimit="10" d="M75 50.1v-5.4m13.3 14.2H61.7v-6c0-1.6 1.3-2.8 2.8-2.8h21c1.6 0 2.8 1.3 2.8 2.8v6zm9.4 34.6l4.3-11.3c.4-1.1 0-2.4-1.1-2.9l-6-3.2-18.7-10c-.7-.4-1.5-.4-2.2 0L55.1 76.2v-.1l-6 3.2c-1.1.6-1.5 1.8-1.1 2.9l1.8 4.7 2.9 7.6 4.1 10.9h36.3"></path>
                                <path d="M73.9 66.1c.7-.4 1.5-.4 2.2 0l18.7 10V61.2c0-1.3-1.1-2.4-2.4-2.4h-35c-1.3 0-2.4 1.1-2.4 2.4v14.9l18.9-10zM50.8 87.4h14.8m-12.5 6.2h7.5" fill="none" stroke="#fff" stroke-width="3" stroke-linecap="round" stroke-linejoin="round" stroke-miterlimit="10"></path>
                                <circle cx="95.1" cy="99.6" r="1.5" fill="#fff"></circle>
                            </svg>