<?xml version="1.0" encoding="UTF-8"?>
<svg id="Layer_1" data-name="Layer 1" xmlns="http://www.w3.org/2000/svg" viewBox="0 0 200 173.7">
  <defs>
    <style>
      .cls-1 {
        fill: #333;
      }

      .cls-2 {
        fill: none;
        stroke: #f49824;
        stroke-width: 2.4px;
      }
    </style>
  </defs>
  <g>
    <path class="cls-1" d="m105.86,147.86h-9.21c-2.23,0-4.05-1.82-4.05-4.05v-4.5c0-.67.55-1.22,1.22-1.22s1.22.55,1.22,1.22v4.5c0,.89.72,1.61,1.61,1.61h9.21c.89,0,1.61-.72,1.61-1.61v-4.5c0-.67.55-1.22,1.22-1.22s1.22.55,1.22,1.22v4.5c0,2.24-1.82,4.05-4.05,4.05Z"/>
    <path class="cls-1" d="m101.46,123.79c-.67,0-1.22-.55-1.22-1.22v-31.86h-3.77c-3.42,0-6.21-2.78-6.21-6.21v-3.57c0-3.42,2.78-6.21,6.21-6.21s6.21,2.78,6.21,6.21v6.41l7.7-4.57c.58-.34,1.33-.15,1.67.43.34.58.15,1.33-.43,1.67l-8.95,5.31v32.39c0,.67-.55,1.22-1.22,1.22Zm-4.99-46.63c-2.08,0-3.77,1.69-3.77,3.77v3.57c0,2.08,1.69,3.77,3.77,3.77h3.77v-7.34c0-2.08-1.69-3.77-3.77-3.77Z"/>
    <g>
      <path class="cls-1" d="m75.29,119.73c-.11,0-.21-.02-.31-.07-.1-.04-.19-.1-.27-.18-.15-.15-.24-.36-.24-.57,0-.11.02-.21.07-.31.04-.11.1-.2.17-.27.08-.07.17-.14.27-.18.3-.12.66-.05.89.18.07.07.14.16.18.27.04.1.06.2.06.31,0,.21-.08.42-.24.57-.08.08-.16.14-.27.18-.1.04-.2.07-.31.07Z"/>
      <path class="cls-1" d="m126.92,117.4c-.28-.36-.22-.87.14-1.15h0c.35-.28.86-.22,1.14.14h0c.28.35.22.86-.14,1.14h0c-.15.12-.33.18-.5.18h0c-.24,0-.47-.11-.63-.31Zm-56.05-.79h0c-.34-.28-.39-.8-.1-1.15h0c.28-.34.8-.39,1.15-.1h0c.34.29.39.8.1,1.15h0c-.16.19-.39.29-.63.29h0c-.18,0-.37-.07-.52-.2Zm59.77-2.36c-.32-.33-.31-.84,0-1.16h0c.33-.31.84-.31,1.16.02h0c.31.32.31.84-.02,1.15h0c-.16.16-.37.24-.57.24h0c-.21,0-.42-.08-.58-.24Zm-63.39-1.03c-.31-.32-.3-.84.02-1.15h0c.33-.31.85-.3,1.16.02h0c.31.33.3.84-.02,1.15h0c-.16.16-.37.23-.57.23h0c-.21,0-.42-.08-.59-.25Zm66.75-2.5c-.35-.29-.4-.8-.11-1.15h0c.28-.35.8-.4,1.15-.11h0c.35.29.4.8.11,1.15h0c-.16.2-.4.29-.64.29h0c-.18,0-.36-.06-.51-.18Zm-69.98-1.26c-.27-.36-.2-.86.15-1.14h0c.35-.28.86-.21,1.14.15h0c.27.36.2.87-.15,1.15h0c-.15.11-.32.16-.49.16h0c-.24,0-.49-.11-.65-.32Zm72.93-2.62c-.37-.24-.48-.75-.24-1.12h0c.24-.37.75-.49,1.12-.24h0c.38.24.49.75.24,1.12h0c-.15.24-.41.37-.68.37h0c-.15,0-.3-.05-.44-.14Zm-75.73-1.47c-.24-.38-.11-.88.27-1.12h0c.38-.24.89-.11,1.12.27h0c.23.39.11.89-.28,1.12h0c-.13.08-.28.11-.42.11h0c-.28,0-.54-.14-.69-.39Zm78.25-2.7c-.41-.2-.56-.69-.36-1.09h0c.2-.4.69-.56,1.09-.36h0c.4.2.56.69.36,1.09h0c-.14.28-.43.45-.72.45h0c-.12,0-.25-.02-.37-.09Zm-80.59-1.67c-.19-.41-.02-.9.4-1.08h0c.41-.2.89-.02,1.08.39h0c.19.41,0,.9-.4,1.08h0c-.11.05-.23.07-.34.07h0c-.31,0-.6-.17-.74-.46Zm82.63-2.75c-.41-.16-.63-.63-.47-1.05h0c.16-.42.63-.64,1.05-.48h0c.42.16.64.63.47,1.05h0c-.12.33-.43.53-.76.53h0c-.09,0-.19-.02-.29-.05Zm-84.47-1.86h0c-.14-.43.09-.89.51-1.03h0c.42-.15.89.09,1.03.51h0c.15.42-.08.89-.51,1.03h0c-.08.02-.17.04-.26.04h0c-.33,0-.66-.21-.77-.55Zm86.02-2.78c-.43-.11-.7-.55-.59-.98h0c.11-.44.55-.7.98-.59h0c.44.11.7.55.59.98h0c-.09.37-.42.62-.78.62h0c-.07,0-.14,0-.2-.03Zm-87.35-2h0c-.1-.44.18-.88.62-.98h0c.44-.09.88.19.98.63h0c.09.44-.19.87-.63.97h0c-.06,0-.11.02-.17.02h0c-.37,0-.72-.26-.8-.64Zm88.37-2.76c-.45-.07-.76-.47-.69-.92h0c.06-.45.47-.76.92-.69h0c.44.06.75.47.69.92h0c-.06.41-.41.7-.81.7h0s-.07,0-.11,0Zm-89.17-2.14c-.05-.45.28-.85.72-.9h0c.45-.05.85.28.9.72h0c.05.45-.28.85-.72.9h-.08c-.41,0-.77-.31-.81-.72Zm89.67-2.71c-.45,0-.81-.38-.79-.84h0c.02-.45.39-.8.84-.78h0c.45,0,.81.38.79.83h0c-.02.45-.37.8-.81.8h0s-.02,0-.02,0Zm-89.93-2.24c0-.46.37-.81.82-.81h0c.45,0,.81.37.81.81h0c0,.45-.37.81-.82.81h0c-.45,0-.81-.37-.81-.81Zm89.02-3.38c-.03-.45.3-.84.75-.88h0c.45-.03.84.3.87.75h0c.04.45-.29.85-.74.88h-.07c-.42,0-.78-.33-.81-.75Zm-88.02-.68c-.45-.06-.77-.46-.72-.9h0c.05-.45.46-.77.9-.72h0c.46.05.77.45.72.9h0c-.05.41-.4.72-.81.72h-.09Zm87.39-4.07h0c-.09-.44.2-.86.64-.94h0c.45-.09.87.2.95.64h0c.09.45-.2.87-.65.95h0s-.1.02-.15.02h0c-.38,0-.72-.27-.81-.67Zm-86.68-.76c-.44-.1-.72-.53-.62-.97h0c.1-.44.53-.72.97-.62h0c.44.1.72.54.62.98h0c-.08.37-.42.63-.79.63h0c-.07,0-.12,0-.18-.02Zm85.54-3.88c-.13-.43.11-.89.54-1.02h0c.43-.13.89.11,1.02.55h0c.13.42-.11.89-.54,1.02h0c-.08.02-.16.03-.24.03h0c-.34,0-.67-.23-.77-.58Zm-84.31-.83c-.42-.15-.65-.61-.5-1.03h0c.15-.42.61-.65,1.03-.5h0c.42.15.65.61.5,1.03h0c-.11.33-.43.55-.77.55h0c-.09,0-.18,0-.27-.04Zm82.66-3.65c-.18-.41.02-.9.42-1.07h0c.41-.18.9.02,1.07.43h0c.17.41-.02.89-.43,1.07h0c-.11.05-.21.07-.32.07h0c-.32,0-.62-.18-.75-.49Zm-80.91-.9c-.41-.2-.59-.68-.39-1.08h0c.2-.41.68-.58,1.08-.39h0c.41.19.58.68.39,1.08h0c-.14.29-.43.46-.74.46h0c-.11,0-.23-.02-.34-.07Zm78.78-3.39h0c-.22-.39-.08-.89.31-1.11h0c.39-.23.89-.09,1.11.3h0c.22.39.08.89-.3,1.12h0c-.13.07-.27.11-.41.11h0c-.28,0-.55-.15-.71-.41Zm-76.54-.94c-.38-.24-.5-.74-.27-1.12h0c.24-.38.74-.5,1.12-.27h0c.38.24.5.74.27,1.12h0c-.15.25-.42.39-.7.39h0c-.14,0-.28-.04-.42-.12Zm73.96-3.08c-.26-.37-.18-.87.19-1.14h0c.37-.26.87-.18,1.13.19h0c.27.37.19.87-.18,1.14h0c-.15.1-.31.15-.47.15h0c-.25,0-.5-.11-.67-.33Zm-71.26-.98c-.36-.28-.42-.79-.15-1.14h0c.28-.36.79-.42,1.15-.15h0c.35.27.41.78.15,1.14h0c-.16.21-.41.32-.64.32h0c-.18,0-.35-.06-.5-.17Zm68.26-2.74c-.31-.33-.28-.85.06-1.15h0c.33-.3.85-.28,1.15.06h0c.3.33.28.85-.06,1.15h0c-.15.15-.35.21-.55.21h0c-.23,0-.45-.09-.6-.27Zm-65.14-1.01c-.32-.31-.33-.83-.02-1.15h0c.31-.33.83-.33,1.15-.02h0c.33.31.33.83.02,1.15h0c-.16.17-.37.25-.59.25h0c-.2,0-.41-.07-.57-.23Zm61.75-2.36h0c-.33-.29-.37-.81-.07-1.15h0c.3-.33.81-.37,1.15-.07h0c.33.3.37.81.07,1.15h0c-.16.18-.39.28-.61.28h0c-.2,0-.38-.07-.54-.21Zm-58.24-1.03c-.28-.34-.24-.85.11-1.15h0c.34-.28.86-.24,1.15.11h0c.28.35.24.86-.11,1.15h0c-.15.13-.33.19-.52.19h0c-.24,0-.46-.1-.63-.29Zm54.5-1.95h0c-.37-.26-.46-.77-.2-1.13h0c.26-.37.77-.46,1.14-.2h0c.36.26.45.77.19,1.14h0c-.15.22-.41.34-.66.34h0c-.16,0-.33-.05-.47-.15Zm-50.65-1.03c-.24-.37-.15-.88.24-1.13h0c.37-.24.88-.15,1.12.23h0c.25.37.15.88-.23,1.13h0c-.14.09-.29.14-.45.14h0c-.26,0-.52-.13-.68-.37Zm46.6-1.53c-.39-.22-.54-.72-.32-1.11h0c.22-.39.72-.53,1.11-.32h0c.39.23.54.72.32,1.12h0c-.15.26-.42.42-.71.42h0c-.14,0-.28-.03-.4-.11Zm-42.44-1.02c-.21-.4-.05-.89.35-1.09h0c.4-.21.89-.06,1.1.34h0c.2.4.05.9-.35,1.1h0c-.12.07-.25.09-.37.09h0c-.3,0-.58-.15-.72-.44Zm38.14-1.08c-.41-.17-.61-.65-.43-1.07h0c.17-.42.65-.6,1.07-.43h0c.41.17.6.65.43,1.07h0c-.13.31-.43.5-.75.5h0c-.11,0-.22-.02-.32-.06Zm-33.73-.99c-.16-.42.05-.89.46-1.05h0c.42-.16.89.05,1.05.47h0c.16.41-.05.89-.46,1.05h0c-.1.03-.2.05-.29.05h0c-.33,0-.63-.2-.76-.52Zm29.23-.62c-.43-.13-.68-.58-.55-1.01h0c.13-.43.59-.68,1.02-.55h0c.42.13.68.59.55,1.02h0c-.11.35-.43.58-.78.58h0c-.07,0-.16,0-.23-.03Zm-24.62-.96c-.11-.43.15-.88.58-.99h0c.44-.11.88.15.99.59h0c.11.43-.15.88-.58.99h0c-.07.02-.14.02-.21.02h0c-.36,0-.68-.24-.78-.61Zm19.97-.15h0c-.44-.08-.74-.5-.66-.94h0c.08-.45.5-.74.95-.66h0c.44.08.73.5.65.94h0c-.07.4-.41.68-.8.68h0s-.1,0-.15-.02Zm-15.21-.91c-.07-.45.24-.86.68-.93h0c.45-.07.86.24.93.68h0c.07.45-.24.86-.69.93h0s-.07,0-.11,0h0c-.4,0-.75-.29-.81-.69Zm10.47.32c-.45-.03-.79-.42-.76-.87h0c.03-.45.42-.78.87-.75h0c.45.03.79.41.76.86h0c-.03.43-.39.76-.81.76h-.06Zm-5.62-.85c-.02-.45.33-.83.78-.85h0c.45-.02.82.33.85.78h0c.02.45-.33.83-.78.85h-.03c-.44,0-.8-.34-.81-.78Z"/>
      <path class="cls-1" d="m123.47,120.57c-.11,0-.21-.02-.31-.07s-.19-.1-.27-.18c-.07-.07-.13-.16-.17-.26s-.07-.2-.07-.31c0-.22.09-.43.24-.58.31-.31.85-.31,1.16,0,.15.15.24.36.24.58,0,.11-.02.21-.07.31s-.1.19-.17.26c-.08.08-.17.14-.27.18s-.2.07-.31.07Z"/>
    </g>
    <g>
      <path class="cls-1" d="m66.77,129.5c-.33,0-.63-.12-.86-.36-.11-.11-.2-.24-.26-.39-.07-.15-.1-.31-.1-.47,0-.32.13-.63.36-.86.46-.46,1.28-.46,1.73,0,.23.23.36.55.36.86,0,.16-.03.33-.09.47-.07.15-.16.28-.27.39-.23.24-.54.36-.86.36Z"/>
      <path class="cls-1" d="m136.91,125.39c-.46-.5-.42-1.27.07-1.72h0c.5-.46,1.28-.42,1.73.08h0c.46.5.42,1.27-.08,1.73h0c-.23.21-.53.32-.82.32h0c-.33,0-.66-.13-.9-.4Zm-76.53-.9h0c-.49-.46-.5-1.24-.04-1.73h0c.46-.48,1.24-.5,1.73-.03h0c.49.46.5,1.24.04,1.73h0c-.24.25-.56.37-.89.37h0c-.3,0-.6-.11-.84-.34Zm81.67-4.2c-.52-.44-.58-1.21-.15-1.73h0c.44-.51,1.2-.58,1.72-.14h0c.51.44.58,1.2.14,1.73h0c-.24.28-.59.42-.94.42h0c-.28,0-.55-.09-.78-.28Zm-86.69-1.25c-.42-.53-.33-1.3.19-1.73h0c.53-.42,1.29-.33,1.72.19h0c.42.53.34,1.29-.18,1.72h0c-.23.18-.5.27-.77.27h0c-.36,0-.71-.15-.95-.45Zm91.13-4.48c-.57-.37-.73-1.12-.36-1.69h0c.37-.56,1.12-.72,1.69-.36h0c.56.37.72,1.12.36,1.68h0c-.24.37-.63.56-1.03.56h0c-.23,0-.46-.07-.66-.2Zm-95.39-1.58c-.36-.58-.17-1.33.4-1.68h0c.58-.35,1.33-.17,1.68.4h0c.36.58.17,1.33-.4,1.69h0c-.2.12-.42.18-.64.18h0c-.41,0-.81-.21-1.04-.59Zm99.07-4.67c-.62-.29-.87-1.02-.58-1.63h0c.29-.61,1.02-.86,1.63-.58h0c.6.29.86,1.03.57,1.63h0c-.2.44-.64.7-1.1.7h0c-.18,0-.36-.04-.52-.12Zm-102.52-1.88c-.28-.61,0-1.33.62-1.61h0c.61-.27,1.34,0,1.61.62h0c.27.62,0,1.34-.62,1.61h0c-.16.07-.33.11-.5.11h0c-.47,0-.91-.27-1.12-.72Zm105.35-4.79c-.64-.21-.99-.9-.78-1.55h0c.2-.64.9-.98,1.54-.78h0c.64.21.98.9.78,1.54h0c-.17.52-.65.85-1.16.85h0c-.12,0-.25-.02-.37-.06Zm-107.92-2.15c-.2-.65.17-1.33.81-1.52h0c.65-.2,1.33.18,1.52.82h0c.2.64-.17,1.33-.82,1.52h0c-.11.03-.23.05-.35.05h0c-.52,0-1.01-.34-1.16-.87Zm109.87-4.84c-.67-.13-1.1-.76-.98-1.42h0c.12-.67.76-1.11,1.42-.98h0c.66.12,1.1.76.98,1.42h0c-.11.59-.63.99-1.2.99h0c-.07,0-.15,0-.22-.02Zm-111.52-2.38c-.11-.67.34-1.29,1.01-1.4h0c.67-.11,1.29.35,1.4,1.02h0c.11.66-.34,1.29-1.01,1.39h0c-.07.02-.13.02-.2.02h0c-.59,0-1.11-.42-1.2-1.03Zm112.55-4.79c-.68-.04-1.19-.61-1.16-1.29h0c.04-.68.62-1.19,1.29-1.16h0c.68.04,1.19.62,1.16,1.29h0c-.04.64-.58,1.15-1.22,1.15h-.06Zm-113.26-2.57c-.02-.68.51-1.24,1.19-1.26h0c.68-.02,1.24.51,1.25,1.19h0c.02.67-.5,1.24-1.18,1.25h-.04c-.66,0-1.2-.52-1.22-1.18Zm112.05-5.8c-.06-.68.46-1.26,1.12-1.3h0c.68-.05,1.26.46,1.31,1.12h0c.05.68-.46,1.26-1.13,1.31h-.09c-.64,0-1.17-.49-1.21-1.13Zm-110.71-.26c-.68-.07-1.16-.66-1.1-1.34h0c.07-.67.66-1.16,1.34-1.09h0c.67.06,1.16.66,1.1,1.33h0c-.06.64-.59,1.11-1.22,1.11h0s-.07,0-.11,0Zm109.74-6.76c-.13-.66.29-1.3.95-1.44h0c.67-.13,1.31.29,1.44.95h0c.14.67-.29,1.31-.95,1.44h0c-.08.02-.16.02-.24.02h0c-.57,0-1.07-.4-1.2-.98Zm-108.74-.41c-.66-.15-1.07-.81-.92-1.46h0c.16-.66.81-1.07,1.47-.92h0c.66.15,1.07.81.92,1.46h0c-.13.56-.63.94-1.19.94h0c-.09,0-.19,0-.28-.02Zm106.88-6.43h0c-.22-.63.11-1.33.76-1.55h0c.64-.22,1.33.11,1.55.76h0c.21.63-.12,1.33-.77,1.55h0c-.13.05-.26.07-.39.07h0c-.51,0-.98-.32-1.16-.82Zm-104.95-.56c-.63-.24-.95-.94-.72-1.57h0c.23-.63.94-.95,1.56-.72h0c.64.24.95.94.72,1.57h0c-.19.5-.65.8-1.15.8h0c-.14,0-.28-.02-.42-.07Zm102.22-5.97h0c-.3-.6-.05-1.34.55-1.64h0c.6-.3,1.34-.06,1.64.55h0c.3.6.05,1.34-.55,1.64h0c-.17.08-.36.12-.54.12h0c-.46,0-.89-.24-1.1-.68Zm-99.4-.71c-.59-.32-.83-1.05-.51-1.65h0c.32-.59,1.06-.82,1.65-.5h0c.59.31.82,1.05.51,1.64h0c-.22.41-.64.65-1.08.65h0c-.2,0-.39-.04-.57-.14Zm95.84-5.42c-.37-.55-.22-1.32.34-1.69h0c.55-.37,1.32-.22,1.69.33h0c.37.56.22,1.32-.33,1.69h0c-.21.15-.45.21-.68.21h0c-.39,0-.78-.19-1.02-.55Zm-92.19-.84c-.55-.39-.68-1.15-.29-1.7h0c.39-.55,1.16-.68,1.7-.29h0c.55.39.68,1.15.29,1.7h0c-.24.34-.61.52-.99.52h0c-.24,0-.5-.07-.71-.23Zm87.88-4.78c-.44-.51-.39-1.28.11-1.73h0c.51-.44,1.29-.39,1.73.11h0c.45.5.39,1.28-.11,1.73h0c-.23.2-.52.3-.81.3h0c-.33,0-.68-.14-.92-.42Zm-83.44-.95c-.5-.46-.53-1.24-.07-1.73h0c.46-.49,1.23-.52,1.73-.07h0c.5.46.53,1.23.07,1.73h0c-.24.26-.57.39-.9.39h0c-.29,0-.59-.11-.82-.32Zm78.44-4.07c-.5-.45-.55-1.22-.11-1.73h0c.45-.5,1.22-.55,1.72-.11h0c.5.45.55,1.21.11,1.72h0c-.24.28-.58.42-.92.42h0c-.28,0-.57-.1-.81-.3Zm-73.31-1.05c-.44-.52-.37-1.29.15-1.73h0c.52-.43,1.29-.37,1.72.15h0c.44.51.37,1.29-.15,1.72h0c-.23.2-.5.28-.78.28h0c-.35,0-.7-.15-.94-.43Zm67.71-3.3c-.56-.37-.71-1.13-.33-1.69h0c.37-.56,1.13-.71,1.69-.33h0c.55.37.7,1.13.33,1.69h0c-.24.35-.62.54-1.01.54h0c-.24,0-.48-.07-.68-.21Zm-61.98-1.12c-.37-.57-.2-1.33.37-1.68h0c.57-.37,1.33-.2,1.69.37h0c.36.57.2,1.32-.37,1.68h0c-.2.13-.43.2-.65.2h0c-.41,0-.8-.2-1.03-.56Zm55.85-2.46c-.6-.31-.85-1.04-.54-1.64h0c.3-.6,1.03-.85,1.64-.54h0c.6.3.85,1.03.55,1.64h0c-.22.42-.65.68-1.09.68h0c-.19,0-.37-.04-.55-.13Zm-49.59-1.19c-.28-.61-.02-1.33.59-1.62h0c.61-.29,1.34-.02,1.62.58h0c.29.61.03,1.34-.58,1.63h0c-.17.08-.35.11-.52.11h0c-.46,0-.9-.25-1.11-.7Zm43.07-1.58c-.64-.22-.97-.92-.75-1.55h0c.22-.63.92-.98,1.55-.75h0c.64.22.98.92.75,1.55h0c-.17.5-.65.81-1.16.81h0c-.13,0-.27-.02-.4-.07Zm-36.38-1.22c-.2-.64.15-1.34.79-1.54h0c.64-.2,1.33.15,1.54.79h0c.2.64-.15,1.34-.79,1.54h0c-.13.04-.25.06-.37.06h0c-.52,0-1-.33-1.16-.85Zm29.55-.68c-.67-.13-1.09-.78-.95-1.44h0c.14-.66.79-1.08,1.45-.94h0c.66.14,1.08.78.94,1.44h0c-.12.58-.63.98-1.2.98h0c-.08,0-.16,0-.24-.03Zm-22.56-1.24c-.12-.67.32-1.3.98-1.42h0c.67-.11,1.3.32,1.42.98h0c.11.67-.32,1.3-.99,1.42h0c-.07,0-.15.02-.22.02h0c-.58,0-1.09-.41-1.2-1Zm15.55.25h0c-.68-.06-1.18-.64-1.12-1.31h0c.05-.68.64-1.18,1.3-1.12h0c.68.05,1.18.63,1.13,1.3h0c-.05.64-.59,1.13-1.22,1.13h-.09Zm-8.38-1.25c-.03-.68.49-1.25,1.16-1.29h0c.68-.03,1.25.49,1.29,1.16h0c.03.67-.48,1.25-1.16,1.28h-.07c-.64,0-1.19-.5-1.22-1.16Z"/>
      <path class="cls-1" d="m132.09,130.37c-.33,0-.64-.13-.86-.36-.23-.24-.36-.54-.36-.86s.13-.64.36-.86c.46-.46,1.28-.46,1.73,0,.23.23.36.54.36.86s-.12.63-.36.86c-.23.23-.53.36-.86.36Z"/>
    </g>
    <circle class="cls-1" cx="78.63" cy="107.31" r="1.22"/>
    <path class="cls-1" d="m110.17,140.53h-18.57c-3.03,0-5.5-2.47-5.5-5.5v-7.39c0-3.47,2.83-6.3,6.3-6.3h20.84v-6.45c0-2.24,1.18-4.28,3.15-5.46,3.56-2.13,6.58-4.86,8.98-8.01.03-.07.08-.14.13-.21,3.99-5.35,6.11-11.7,6.14-18.36h0v-.02h0v-.04h0v-.02h0v-.02h0v-.02h0v-.02c0-17.22-14.17-31.22-31.59-31.22s-31.59,14.01-31.59,31.22v.02h0v.02h0c0,6.69,2.19,13.18,6.18,18.51l1.48,1.84c.42.52.34,1.27-.17,1.7-.51.43-1.27.37-1.71-.13-.54-.62-1.06-1.27-1.56-1.93l-.02-.03c-4.35-5.84-6.64-12.72-6.66-19.95h0v-.03h0v-.02c0-18.56,15.27-33.66,34.04-33.66s34.04,15.1,34.04,33.66v.02h0v.02h0v.02h0v.02h0v.04h0v.02h0c-.05,11.82-6.19,22.53-16.43,28.67-1.23.74-1.96,1.99-1.96,3.36v20.14c0,3.03-2.47,5.5-5.5,5.5Zm-17.78-16.74c-2.13,0-3.86,1.73-3.86,3.86v7.39c0,1.69,1.37,3.06,3.06,3.06h18.57c1.69,0,3.06-1.37,3.06-3.06v-11.24h-20.84Z"/>
  </g>
  <g id="Design">
    <g id="Our-vision-_-culture" data-name="Our-vision-&amp;amp;-culture">
      <g id="Stroke-2">
        <polygon id="Stroke-1" class="cls-2" points="149.25 1.63 50.75 1.63 1.5 86.85 50.75 172.07 149.25 172.07 198.5 86.85 149.25 1.63"/>
      </g>
    </g>
  </g>
</svg>