<svg xmlns="http://www.w3.org/2000/svg" viewBox="0 0 150 150"> <g> <path fill="none" stroke="white" stroke-miterlimit="10" stroke-width="3" d="M100.7 125.6H50.5c-2.3 0-4.4-1.2-5.5-3.2L19.9 78.9c-1.1-2-1.1-4.4 0-6.3L45 29.1c1.1-2 3.2-3.2 5.5-3.2h50.2c2.3 0 4.4 1.2 5.5 3.2l25.1 43.5c1.1 2 1.1 4.4 0 6.3l-25.1 43.5c-1.2 1.9-3.3 3.2-5.5 3.2z"></path> </g> <g> <g> <path d="M75.6 88.6c-7.6 0-13.7-4.9-13.7-12.6 0-3.8 1.9-7 4.6-10.4 2.6-3.3 6-6.8 9-11.3" fill="none" stroke="white" stroke-width="3" stroke-linecap="round" stroke-linejoin="round" stroke-miterlimit="10"></path> </g> <g> <path d="M75.6 88.6c7.6 0 13.7-4.9 13.7-12.6 0-3.8-1.9-7-4.6-10.4-2.6-3.3-6-6.8-9-11.3" fill="none" stroke="white" stroke-width="3" stroke-linecap="round" stroke-linejoin="round" stroke-miterlimit="10"></path> </g> </g> <g> <path d="M92.1 101.8c-4.8 2.9-10.5 4.6-16.5 4.6-17.6 0-31.9-14.3-31.9-31.9S58 42.7 75.6 42.7s31.9 14.3 31.9 31.9c0 4.7-1 9.2-2.8 13.2" fill="none" stroke="white" stroke-width="2.9295" stroke-linecap="round" stroke-linejoin="round" stroke-miterlimit="10"></path> <g> <path d="M82.1 95.1l12.2 6" fill="none" stroke="white" stroke-width="2.9295" stroke-linecap="round" stroke-linejoin="round" stroke-miterlimit="10"></path> <path d="M94.3 101.1l-6.1 12.2" fill="none" stroke="white" stroke-width="2.9295" stroke-linecap="round" stroke-linejoin="round" stroke-miterlimit="10"></path> </g> </g> <path fill="white" d="M100.2 93.2c-1.1 0-2 .9-2 2s.9 2 2 2 2-.9 2-2-.8-2-2-2z"></path> </svg>