<svg xmlns="http://www.w3.org/2000/svg" viewBox="0 0 150 150">
  <ellipse fill="#9a4d9e" transform="rotate(-88.58 123.3249079 70.07681423)" cx="123.3" cy="70.1" rx="1.5" ry="1.5"/>
  <path d="M101.3 92.6c.8-2.3 1.3-4.8 1.3-7.4v-30c0-2.4-2-4.4-4.4-4.4-2.4 0-4.4 2-4.4 4.4V44.8c0-2.4-2-4.4-4.4-4.4s-4.4 2-4.4 4.4v-7c0-2.4-2-4.4-4.4-4.4s-4.4 2-4.4 4.4v7.1c0-2.4-2-4.4-4.4-4.4s-4.4 2-4.4 4.4v20.9c0-2.4-2-4.4-4.4-4.4-2.4 0-4.4 2-4.4 4.4l.1 19.4c0 12.1 9.8 22 22 22 5.2 0 10.1-1.8 13.8-4.9M67.4 60.8V83m8.8-38.6v24.5M85 44.4v24.5m8.8-21.4v25.2" fill="none" stroke="#9a4d9e" stroke-width="3" stroke-linecap="round" stroke-linejoin="round" stroke-miterlimit="10"/>
  <ellipse fill="#9a4d9e" transform="rotate(-88.58 98.80195545 98.01751024)" cx="98.8" cy="98" rx="1.5" ry="1.5"/>
  <path d="M123.8 76.1c0 28.4-23.1 51.5-51.5 51.5m-44.2-24c9.1 14.4 25.2 24 43.5 24" fill="none" stroke="#9a4d9e" stroke-width="3" stroke-linecap="round" stroke-miterlimit="10"/>
  <path d="M24 82.4c-.4-.6-.8-1.3-.8-1.3-1.5-2.6-2.4-5.7-2.4-9 0-9.8 7.9-17.8 17.8-17.8l15.6-.1c2 0 3.6 1.6 3.6 3.6s-1.6 3.6-3.6 3.6h16.9c2 0 3.6 1.6 3.6 3.6s-1.6 3.6-3.6 3.6h5.7c2 0 3.6 1.6 3.6 3.6s-1.6 3.6-3.6 3.6h-5.7c1.9 0 3.6 1.6 3.6 3.6S73.1 83 71.1 83h-8.4c2 0 3.6 1.6 3.6 3.6s-1.6 3.6-3.6 3.6H38.5c-1.2 0-2.3-.1-3.4-.3-1-.2-1.5-.4-1.5-.4m24.6-28.1h-18m31.3 7.1H51.7m19.8 7.1H51.7M69 82.7H48.6" fill="#fff" stroke="#9a4d9e" stroke-width="3" stroke-linecap="round" stroke-linejoin="round" stroke-miterlimit="10"/>
  <ellipse fill="#9a4d9e" transform="rotate(-88.58 28.12928356 86.75724026)" cx="28.1" cy="86.8" rx="1.5" ry="1.5"/>
  <path d="M27.4 48.8c9.1-15.2 25.8-25.4 44.8-25.4 9.7 0 18.7 2.6 26.4 7.2" fill="none" stroke="#9a4d9e" stroke-width="3" stroke-linecap="round" stroke-miterlimit="10" stroke-dasharray="0,6"/>
</svg>