<svg xmlns="http://www.w3.org/2000/svg" viewBox="0 0 150 150"> <path fill="white" d="M63.3 98.7c-1.1 0-2 .9-2 2s.9 2 2 2 2-.9 2-2-.9-2-2-2z"></path> <path stroke="white" fill="none" stroke-miterlimit="10" stroke-width="3" d="M100.6 125.8H50.5c-2.3 0-4.4-1.2-5.5-3.2L19.9 79.2c-1.1-2-1.1-4.4 0-6.3L45 29.4c1.1-2 3.2-3.2 5.5-3.2h50.2c2.3 0 4.4 1.2 5.5 3.2l25.1 43.5c1.1 2 1.1 4.4 0 6.3l-25.1 43.5c-1.2 1.9-3.3 3.1-5.6 3.1z"></path> <path fill="none" stroke="#FFF" stroke-linecap="round" stroke-miterlimit="10" stroke-width="3" d="M78.7 74.6H63m24.5 13.2H63m33.6-22.4h-6.3c-1.1 0-2.1-1-2.1-2.1V50.6M56 100.9c-1.1 0-2.1-.9-2.1-2.1v-46c0-1.1 1-2.1 2.1-2.1h32.2l8.4 14.7v33.4c0 1.1-.9 2.1-2.1 2.1H71.7"></path> </svg>