<?xml version="1.0" encoding="utf-8"?>
<!-- Generator: Adobe Illustrator 27.3.1, SVG Export Plug-In . SVG Version: 6.00 Build 0)  -->
<svg version="1.1" id="Layer_1" xmlns="http://www.w3.org/2000/svg" xmlns:xlink="http://www.w3.org/1999/xlink" x="0px" y="0px"
	 viewBox="0 0 305 101" style="enable-background:new 0 0 305 101;" xml:space="preserve">
<style type="text/css">
	.st0{fill:none;stroke:#F8981D;}
	.st1{fill:none;stroke:#F8981D;stroke-linecap:round;}
	.st2{fill-rule:evenodd;clip-rule:evenodd;fill:#E7871E;}
	.st3{fill-rule:evenodd;clip-rule:evenodd;fill:#FFFFFF;}
</style>
<g>
	<path class="st0" d="M64.4,59.2V28.9l3.6-7.5l-0.5-2.3c0-0.2-0.2-0.4-0.5-0.4h-3.7v-5.1h2.1c0.2,0,0.4-0.2,0.4-0.4v-0.7H59v0.7
		c0,0.2,0.2,0.4,0.4,0.4h1.9v5.1h-4V7.1c0-0.2,0-0.8-0.8-0.8c-0.9,0-0.8,0.7-0.8,0.8v11.7h-3.2v-8.2c0-0.2-0.1-0.3-0.3-0.3h-1.9
		c-0.2,0-0.3,0.1-0.3,0.3v8.2h-4.4l-1.1-3.2c0-0.1-0.2-0.2-0.3-0.2h-0.4V1.5H41v13.9h-0.4c-0.1,0-0.3,0.1-0.3,0.2l-1,3.2h-2.8
		c-0.3,0-0.5,0.2-0.5,0.5c0,0,0,0,0,0v9.7h0.1v27.7 M32.3,43.2L30.5,21l-0.3-3.1c0-0.3-0.2-0.4-0.5-0.4h-1.6v-4.2
		c0-0.2-0.2-0.3-0.3-0.3c0,0,0,0,0,0h-2.6c-0.2,0-0.3,0.2-0.3,0.3c0,0,0,0,0,0v4.2h-1.3v-1.3c0-0.2-0.2-0.3-0.3-0.3h-2
		c-0.2,0-0.3,0.2-0.3,0.3v1.3h-1.2c-0.3,0-0.5,0.2-0.5,0.5v32.9"/>
	<path class="st0" d="M36.1,43.2H30v7.7H15.6c-0.2,0-0.3,0.1-0.3,0.3v5.5"/>
	<path class="st1" d="M270.6,56.4c-1.1,0-2-0.9-2-2c0,0,0,0,0,0c0-1.1,0.9-2,2-2c1.1,0,2,0.9,2,2C272.5,55.5,271.6,56.4,270.6,56.4z
		 M257.8,58.4c-0.4,0.7-1.2,1.1-2,1.1h-8.1l-0.3-2.7h8.3c1.3,0,1.9-1.1,1.9-2.4V53h3.7L257.8,58.4z M165.2,59.5v-2.6
		c0,0,0-0.1,0.1-0.1h7.2l-0.3,2.7L165.2,59.5L165.2,59.5z M160.4,59.5v-3.1c0-0.5-0.4-0.9-0.9-0.9h-7.2l-0.2-2.4h20.7l-0.2,2.4h-7.8
		c-0.5,0-0.9,0.4-0.9,0.9v3.1L160.4,59.5L160.4,59.5z M152.7,59.5l-0.3-2.7h6.6c0,0,0.1,0,0.1,0.1v2.6L152.7,59.5L152.7,59.5z
		 M200.8,59.5l-0.3-2.7h20l-0.3,2.7L200.8,59.5L200.8,59.5z M176.8,59.5l-0.3-2.7h20l-0.3,2.7L176.8,59.5L176.8,59.5z M224.4,59.5
		l-0.3-2.7h20l-0.2,2.7L224.4,59.5L224.4,59.5z M128.8,59.5l-0.3-2.7h20l-0.3,2.7L128.8,59.5L128.8,59.5z M104.8,59.5l-0.3-2.7h20
		l-0.3,2.7L104.8,59.5L104.8,59.5z M80.7,59.5l-0.3-2.7h20l-0.3,2.7L80.7,59.5L80.7,59.5z M68.9,55.4c-0.6,0-1-0.5-1-1V53h9
		l-0.2,2.4C76.6,55.4,68.9,55.4,68.9,55.4z M100.9,53l-0.2,2.4H80.4L80.1,53C80.1,53,100.9,53,100.9,53z M124.9,53l-0.2,2.4h-20.3
		l-0.2-2.4H124.9z M148.9,53l-0.2,2.4h-20.3l-0.2-2.4H148.9z M244.6,53l-0.2,2.4h-20.3l-0.2-2.4H244.6L244.6,53z M196.9,53l-0.2,2.4
		h-20.3l-0.2-2.4H196.9L196.9,53z M220.9,53l-0.2,2.4h-20.3l-0.2-2.4H220.9L220.9,53z M256.4,53v1.4c0,0.6-0.5,1-1,1h-7.9l-0.2-2.4
		H256.4z M303,88.6c0.9-1.9,1.3-4,1.3-6.1c0-4.4-3.6-8.1-8.1-8.1c-1.9,0-3.5-1.2-4.1-2.8c-0.5-1.2-0.4-2.7,0.3-3.8l10.3-18
		c0.2-0.4,0.1-1-0.3-1.2c-0.1-0.1-0.3-0.1-0.4-0.1h-37.1c-0.8,0-1.5,0.4-2,1.1l-0.7,1.1H64.4V53h2.1v1.4c0,1.3,1,2.4,1.9,2.4h8.1
		l-0.3,2.7H59.8l-2.5-2.3c-0.2-0.2-0.4-0.3-0.7-0.3H1.1c-0.2,0-0.4,0.2-0.4,0.4l0,0v15.3c0,2.5,1.7,4.7,4.2,5.2l3.8,0.9v1.7H2.7
		c-0.4,0-0.7,0.3-0.7,0.7v16c0,0.4,0.3,0.7,0.7,0.7h8c0.7,0,1.4-0.6,1.4-1.3l1.2-16.7l5.1,1.2c3.7,0.8,6.3,4.1,6.3,7.8
		c0,0.8-0.6,1.4-1.4,1.4c-1.5,0-2.9,0.9-3.4,2.3h-1.1v-1.3c0-0.1,0-0.2,0-0.3l-1-3c-0.1-0.4-0.5-0.7-1-0.7c-0.3,0-0.5,0.2-0.5,0.5
		c0,0,0,0,0,0v4.8c-0.7,0-1.3,0.5-1.4,1.3s0.5,1.3,1.3,1.4c0,0,0.1,0,0.1,0v4.8c0,0.3,0.2,0.5,0.5,0.5c0.4,0,0.8-0.3,1-0.7l1-3
		c0-0.1,0-0.2,0-0.3v-1.3h1.1c0.5,1.4,1.9,2.3,3.4,2.3h266c4.3,0,8.3-1.9,11-4.8L303,88.6L303,88.6z"/>
	<path class="st0" d="M287.9,48.6l-1.2-4.5c-0.1-0.4-0.5-0.7-0.9-0.7h-0.2c-0.8-1.4-2.3-2.2-3.9-2.2c-1.7,0-3.1,0.9-3.9,2.2h-0.2
		c-0.4,0-0.8,0.3-0.9,0.7l-1.2,4.5H287.9z M67.1,23.7H46.4c-0.2,0-0.3,0.1-0.4,0.2l-1.2,2.4c0,0,0,0.1,0,0.1c0,0,0,0.1,0.1,0.1h20.8
		 M63.6,23.7l-1.4,2.8 M60.1,23.7l-1.4,2.8 M56.6,23.7l-1.4,2.8 M49.6,23.7l-1.4,2.8 M53.1,23.7l-1.4,2.8"/>
	<path class="st2" d="M41.2,36.8h25v-1.6h-25V36.8z"/>
	<path class="st0" d="M41.2,36.8h25v-1.6h-25V36.8z"/>
	<path class="st2" d="M41.2,41.8h25v-1.6h-25V41.8z"/>
	<path class="st0" d="M41.2,41.8h25v-1.6h-25V41.8z"/>
	<path class="st2" d="M41.2,46.8h25v-1.6h-25V46.8z"/>
	<path class="st0" d="M41.2,46.8h25v-1.6h-25V46.8z"/>
	<path class="st3" d="M302.2,90.8c0,0.2-0.2,0.4-0.4,0.4c-0.2,0-0.4-0.2-0.4-0.4c0,0,0,0,0,0c0-0.2,0.2-0.4,0.4-0.4
		C302,90.3,302.2,90.5,302.2,90.8"/>
</g>
</svg>
